<?xml version="1.0" standalone="no"?>
<!DOCTYPE svg PUBLIC "-//W3C//DTD SVG 20010904//EN"
 "http://www.w3.org/TR/2001/REC-SVG-20010904/DTD/svg10.dtd">
<svg version="1.0" xmlns="http://www.w3.org/2000/svg"
 width="300.000000pt" height="300.000000pt" viewBox="0 0 300.000000 300.000000"
 preserveAspectRatio="xMidYMid meet">
<metadata>
Created by potrace 1.10, written by Peter Selinger 2001-2011
</metadata>
<g transform="translate(0.000000,300.000000) scale(0.100000,-0.100000)"
fill="#000000" stroke="none">
<path d="M1545 2942 c-3 -3 -5 -110 -5 -239 l0 -233 38 0 c20 0 68 -7 107 -15
38 -8 73 -15 77 -15 12 0 7 471 -5 492 -11 16 -24 19 -109 17 -53 -1 -100 -4
-103 -7z m178 -31 c5 -1 5 -5 2 -11 -3 -5 -3 -16 2 -22 8 -14 5 -367 -3 -380
-7 -11 -126 2 -142 14 -16 14 -15 376 1 396 8 10 28 12 71 8 34 -3 65 -5 69
-5z"/>
<path d="M1048 2793 c-10 -12 -12 -389 -2 -405 3 -5 11 -5 17 0 7 5 46 20 87
32 134 40 120 17 120 197 0 87 -5 165 -10 173 -12 19 -196 22 -212 3z m181
-29 c3 -3 5 -63 5 -134 -1 -95 -5 -133 -15 -143 -8 -7 -42 -23 -77 -35 -48
-16 -64 -18 -68 -9 -2 7 -3 82 -2 167 l3 155 40 6 c43 5 106 2 114 -7z"/>
<path d="M2048 2613 c-13 -15 -15 -42 -13 -156 l3 -138 58 -40 c33 -23 80 -61
106 -86 25 -25 50 -43 55 -40 4 3 6 110 3 239 l-5 233 -96 3 c-81 2 -98 0
-111 -15z m169 -26 c15 -10 17 -333 2 -343 -10 -6 -129 79 -142 102 -12 21
-11 222 2 238 12 14 116 17 138 3z"/>
<path d="M737 2445 c-9 -8 -19 -15 -22 -15 -7 0 -91 -85 -150 -151 -44 -48
-148 -199 -138 -199 4 0 4 -4 -2 -8 -5 -4 -20 -27 -31 -52 -12 -25 -31 -63
-41 -85 -21 -41 -41 -98 -47 -131 -2 -11 -9 -37 -14 -59 -6 -22 -14 -53 -18
-70 -14 -59 -13 -387 2 -455 86 -406 331 -718 704 -894 108 -51 349 -119 350
-98 1 4 2 45 3 92 l2 85 -60 13 c-98 22 -274 99 -360 157 -378 258 -550 724
-428 1167 8 32 19 55 24 52 5 -3 6 1 4 9 -7 17 42 128 89 201 19 30 67 91 106
136 l72 81 -4 116 c-3 119 -11 139 -41 108z m10 -96 c4 -84 -6 -123 -43 -164
-62 -71 -152 -203 -180 -262 -38 -84 -81 -221 -89 -284 -4 -30 -10 -55 -13
-56 -11 -4 -6 -210 7 -298 43 -295 226 -581 476 -746 84 -56 136 -81 245 -118
164 -57 150 -48 150 -98 0 -31 -5 -45 -16 -50 -48 -18 -337 94 -464 180 -94
63 -199 162 -270 253 -17 21 -38 47 -46 57 -16 19 -114 194 -114 203 0 3 -9
24 -20 48 -10 23 -21 54 -24 67 -2 13 -9 36 -14 50 -6 14 -13 42 -16 62 -3 20
-10 54 -15 76 -15 68 -7 357 13 446 32 143 123 347 206 460 66 89 199 227 214
222 6 -2 12 -24 13 -48z"/>
<path d="M1489 2286 c-2 -2 -19 -6 -37 -9 -48 -8 -77 -30 -101 -80 -39 -80
-23 -151 46 -204 47 -36 136 -40 179 -7 83 61 98 171 34 247 -23 29 -108 65
-121 53z m79 -63 c50 -50 58 -107 24 -169 -31 -58 -140 -69 -191 -20 -32 30
-51 102 -35 128 5 7 9 15 9 18 1 16 34 48 60 58 56 20 103 15 133 -15z"/>
<path d="M2460 2054 c-89 -74 -86 -69 -62 -99 11 -14 34 -58 51 -98 134 -322
104 -678 -81 -973 -154 -246 -410 -422 -676 -464 -37 -6 -77 -13 -89 -16 l-23
-4 0 196 0 196 128 -7 c70 -4 186 -8 257 -9 122 -1 134 1 189 26 32 16 63 25
70 21 6 -3 8 -3 4 2 -4 4 13 30 37 57 69 77 93 189 61 281 -45 124 -152 192
-336 212 -104 11 -159 26 -198 55 -90 65 -75 177 31 231 35 18 54 21 131 17
77 -3 98 -8 138 -31 25 -16 52 -35 59 -43 10 -13 21 -5 76 51 72 75 72 80 -6
134 -78 53 -145 73 -257 79 -118 5 -189 -11 -268 -62 -101 -66 -146 -138 -154
-246 -7 -103 24 -184 98 -254 69 -66 129 -89 285 -111 136 -19 173 -31 203
-70 44 -56 15 -131 -62 -160 -35 -14 -66 -16 -138 -13 -99 5 -167 27 -208 68
-15 15 -25 18 -33 11 -7 -5 -24 -14 -39 -20 -25 -10 -26 -9 -73 122 -25 73
-80 224 -120 337 -41 113 -86 242 -101 286 -26 78 -29 82 -64 93 -46 14 -123
14 -172 1 -32 -9 -39 -17 -62 -76 -15 -35 -28 -73 -30 -82 -1 -9 -6 -24 -9
-32 -15 -38 -65 -181 -122 -350 -35 -102 -88 -257 -119 -344 -31 -87 -56 -163
-56 -168 0 -4 47 -8 104 -8 l104 0 52 160 51 160 165 0 c90 0 167 0 171 1 4 0
22 -41 40 -93 l33 -93 0 -427 0 -428 70 0 70 0 0 74 0 74 63 7 c132 14 341 80
444 141 24 14 48 22 53 19 6 -4 9 -1 8 7 -2 7 5 12 14 12 10 -1 16 2 15 6 -1
4 28 31 65 59 133 101 277 271 347 409 138 271 172 584 96 875 -38 149 -129
347 -158 347 -7 0 -37 -21 -67 -46z m91 -46 c25 -42 62 -134 93 -233 28 -89
46 -217 46 -330 0 -139 -11 -215 -50 -340 -106 -348 -351 -622 -681 -761 -90
-38 -267 -84 -323 -84 -51 0 -86 -33 -86 -81 0 -51 -15 -80 -40 -76 -11 2 -23
6 -26 10 -4 4 -8 188 -9 409 l-1 403 -28 87 c-20 65 -35 93 -57 112 -30 25
-34 26 -184 26 -149 0 -154 -1 -183 -25 -27 -23 -67 -114 -87 -200 -3 -16 -13
-45 -22 -62 -14 -31 -18 -33 -69 -33 -79 0 -78 -10 -8 205 18 55 60 177 92
270 32 94 60 175 62 180 1 6 6 19 10 30 19 51 34 97 62 180 16 50 39 99 50
109 28 26 130 32 165 9 30 -20 42 -45 109 -248 30 -93 62 -183 69 -200 7 -16
23 -59 35 -95 101 -293 103 -295 172 -286 30 4 49 3 54 -5 14 -24 114 -58 188
-64 91 -8 167 7 214 42 89 67 80 177 -21 233 -36 20 -73 28 -228 50 -92 13
-166 48 -216 103 -52 56 -70 97 -77 179 -6 57 -3 70 25 128 32 67 40 77 100
123 65 49 223 85 284 64 11 -3 37 -8 57 -11 48 -6 151 -52 177 -80 l21 -22
-31 -37 c-17 -20 -36 -37 -43 -37 -8 0 -33 11 -57 24 -119 65 -286 56 -352
-19 -25 -28 -57 -96 -57 -123 0 -35 36 -97 76 -130 32 -27 54 -35 129 -47 11
-2 61 -11 110 -19 112 -19 169 -43 217 -93 49 -50 68 -99 68 -173 0 -199 -196
-303 -485 -257 -55 9 -129 15 -164 13 -105 -5 -103 2 -103 -366 0 -39 2 -47
23 -69 19 -20 27 -22 68 -16 25 4 60 9 76 11 40 5 177 50 243 81 72 33 207
125 265 181 58 56 147 163 176 212 66 112 134 282 148 375 3 17 9 50 13 75 8
44 6 261 -3 310 -20 104 -51 197 -102 304 -15 32 -25 58 -24 60 2 1 21 16 42
34 21 18 41 32 45 32 4 0 19 -19 33 -42z"/>
<path d="M1160 1571 c-21 -43 -90 -239 -90 -258 0 -7 9 -22 20 -33 17 -17 33
-20 113 -20 98 0 108 3 125 36 9 18 4 43 -32 141 -45 125 -79 189 -84 162 -1
-8 18 -73 44 -144 25 -72 48 -138 51 -147 5 -16 -4 -18 -101 -18 -58 0 -106 3
-106 7 0 3 19 63 41 132 57 173 59 181 49 181 -5 0 -19 -18 -30 -39z"/>
<path d="M1507 1912 c-8 -11 29 -52 47 -52 9 0 16 5 16 11 0 5 -4 7 -10 4 -5
-3 -10 -1 -10 6 0 7 -3 9 -7 6 -9 -9 -34 13 -27 24 3 5 3 9 0 9 -3 0 -7 -3 -9
-8z"/>
<path d="M634 1459 c-46 -23 -67 -99 -43 -153 18 -38 81 -66 127 -55 41 9 78
48 88 91 7 36 -23 99 -56 115 -30 15 -87 16 -116 2z m109 -48 c25 -24 25 -76
1 -102 -34 -38 -123 -11 -126 38 -3 33 12 73 27 73 8 0 15 5 15 11 0 17 61 2
83 -20z"/>
<path d="M700 1197 c0 -8 10 -22 22 -33 12 -10 18 -13 14 -6 -4 6 -3 12 2 12
6 0 12 -7 16 -15 3 -8 11 -15 18 -15 9 0 8 3 -2 10 -8 5 -11 10 -6 10 5 0 3 7
-4 15 -7 8 -20 14 -29 13 -9 -2 -15 3 -13 10 1 6 -2 12 -8 12 -5 0 -10 -6 -10
-13z"/>
</g>
</svg>
