<?xml version="1.0" standalone="no"?>
<!DOCTYPE svg PUBLIC "-//W3C//DTD SVG 20010904//EN"
 "http://www.w3.org/TR/2001/REC-SVG-20010904/DTD/svg10.dtd">
<svg version="1.0" xmlns="http://www.w3.org/2000/svg"
 width="1727.000000pt" height="1281.000000pt" viewBox="0 0 1727.000000 1281.000000"
 preserveAspectRatio="xMidYMid meet">
<metadata>
Created by potrace 1.16, written by Peter Selinger 2001-2019
</metadata>
<g transform="translate(0.000000,1281.000000) scale(0.100000,-0.100000)"
fill="#000000" stroke="none">
<path d="M0 7875 c0 -4928 0 -4935 20 -4935 20 0 20 7 20 385 l0 385 35 0 35
0 0 -390 0 -390 -24 0 c-13 0 -38 -3 -55 -6 l-31 -6 0 -1459 0 -1459 8635 0
8635 0 0 585 0 585 -30 0 -30 0 0 885 0 885 30 0 30 0 0 4935 0 4935 -8635 0
-8635 0 0 -4935z m10870 3785 l0 -1121 21 11 c31 17 33 7 4 -20 -18 -16 -25
-34 -25 -59 l0 -35 60 59 60 59 0 1113 0 1113 30 0 30 0 0 -1079 0 -1079 60
29 60 29 0 1020 0 1020 35 0 35 0 0 -1037 0 -1037 43 41 c23 22 50 43 60 46
16 6 17 59 17 932 l0 925 35 0 35 0 1 -917 c1 -505 0 -936 -1 -958 l-1 -40 60
60 61 59 0 808 0 808 35 0 35 0 0 -805 c0 -619 3 -805 12 -805 9 0 9 -3 0 -12
-13 -13 -17 -78 -5 -78 4 0 31 23 60 52 l53 52 0 673 0 673 35 0 35 0 0 -670
c0 -514 3 -670 12 -670 9 0 9 -3 0 -12 -7 -7 -12 -26 -12 -42 l0 -30 48 47
c26 26 53 47 60 47 9 0 12 116 12 510 l0 510 35 0 35 0 0 -547 0 -547 38 37
c21 20 48 37 60 37 l22 0 0 325 0 325 35 0 35 0 0 -345 0 -346 22 21 c14 13
35 20 60 20 l38 0 0 115 0 115 30 0 30 0 0 -127 c0 -99 3 -124 12 -115 7 7 32
12 57 12 l45 0 -57 -58 c-50 -51 -57 -62 -57 -97 l0 -40 98 98 c94 94 99 97
142 97 l45 0 -143 -143 c-128 -128 -142 -146 -142 -177 0 -34 2 -33 178 143
177 177 177 177 222 177 l45 0 -128 -128 c-109 -109 -128 -133 -125 -155 3
-25 15 -15 159 128 l157 155 48 0 49 0 -208 -208 c-180 -180 -208 -212 -205
-235 3 -24 24 -6 242 208 238 234 239 235 282 235 24 0 44 -3 44 -6 0 -3 -128
-132 -285 -288 -263 -261 -285 -285 -285 -317 0 -33 11 -23 323 289 322 322
322 322 365 322 23 0 42 -3 42 -7 0 -5 -165 -173 -366 -374 -289 -289 -365
-370 -362 -388 2 -18 27 2 148 124 80 80 185 180 233 223 80 70 86 78 65 84
l-23 6 25 1 c30 1 159 126 161 156 1 16 2 17 6 3 3 -13 25 4 90 73 80 83 89
90 121 87 24 -2 36 -8 38 -20 1 -11 -4 -18 -15 -18 -27 0 -41 -21 -41 -64 l0
-41 61 63 c47 48 67 62 90 62 22 0 29 5 29 20 0 16 7 20 35 20 34 0 35 -1 35
-38 l0 -38 40 4 c22 2 40 0 40 -4 0 -5 -18 -27 -41 -50 -34 -34 -40 -47 -37
-74 l3 -33 58 56 c53 52 57 60 59 104 l1 48 6 -40 c5 -33 10 -40 29 -41 19 0
22 5 24 40 l1 41 4 -40 c3 -22 10 -43 16 -47 9 -5 9 -10 -1 -20 -6 -6 -12 -28
-12 -47 l0 -35 38 37 c41 40 58 45 87 24 17 -13 13 -19 -54 -89 -52 -55 -71
-83 -71 -102 0 -26 6 -22 90 56 86 79 90 85 91 128 2 36 3 39 6 13 4 -28 9
-33 39 -39 19 -3 34 -9 34 -12 0 -3 -16 -23 -36 -43 -27 -28 -35 -43 -32 -65
l3 -28 52 53 c48 48 55 52 85 46 45 -10 51 -15 37 -31 -8 -10 -8 -14 0 -14 6
0 11 -7 11 -17 0 -15 1 -15 18 0 10 10 23 17 29 17 16 0 167 -86 247 -140 307
-207 588 -502 763 -798 79 -134 175 -340 217 -462 34 -102 86 -292 86 -317 0
-10 -74 -13 -335 -13 l-335 0 0 -960 0 -959 37 -28 c20 -15 60 -50 90 -77 l53
-49 3 974 2 974 3 -983 2 -984 23 -31 22 -32 5 1015 5 1015 3 -1013 2 -1013
45 -56 c25 -31 65 -88 88 -127 l42 -71 5 860 5 860 3 -863 2 -864 46 -85 c26
-46 66 -141 90 -211 l43 -127 1 762 0 762 -32 4 c-32 4 -32 4 5 5 l37 2 0
-773 0 -772 24 -97 c88 -345 85 -767 -8 -1126 -14 -52 -16 -176 -16 -941 l0
-881 35 0 35 0 0 -880 0 -880 -35 0 -35 0 0 875 0 875 -37 2 c-37 1 -37 1 -5
5 l32 4 -1 872 -1 872 -29 -90 c-56 -174 -62 -191 -106 -277 l-43 -88 0 -645
0 -645 35 0 35 0 0 -685 0 -685 -35 0 -35 0 0 680 0 680 -37 2 c-37 1 -37 1
-5 5 l32 4 0 641 c0 353 -2 639 -4 637 -2 -2 -21 -38 -42 -79 -20 -41 -59
-107 -86 -147 l-48 -72 0 -496 0 -495 -35 0 -35 0 -2 447 -3 447 -54 -67 c-30
-37 -58 -67 -63 -67 -5 0 -20 -12 -33 -28 l-24 -27 -1 -347 0 -347 33 -4 c32
-4 32 -4 -5 -5 l-38 -2 -2 339 -3 339 -45 -40 c-25 -22 -64 -53 -87 -69 l-43
-30 0 -264 0 -264 33 -4 c31 -4 31 -4 -5 -5 l-38 -2 0 255 c0 253 0 256 -20
245 -19 -10 -20 -21 -20 -255 l0 -245 -35 0 -35 0 0 215 c0 229 -1 234 -47
196 -22 -19 -23 -24 -23 -209 l0 -191 33 -4 c31 -4 31 -4 -5 -5 l-38 -2 0 185
c0 102 -4 185 -8 185 -27 0 -32 -30 -32 -197 l0 -173 -72 2 c-40 0 -58 3 -40
5 l32 4 0 150 0 150 -22 -12 c-13 -7 -38 -23 -55 -37 l-33 -24 0 -119 0 -119
-72 2 c-40 0 -58 3 -40 5 l32 4 0 100 0 101 -52 -31 -53 -30 -3 -75 -3 -76
-72 2 c-40 0 -57 3 -39 5 l32 4 0 59 c0 58 -1 59 -22 51 -13 -5 -38 -17 -55
-27 -28 -16 -33 -25 -33 -56 0 -35 -2 -38 -30 -38 -27 0 -30 3 -32 33 l-1 32
-4 -32 c-4 -30 -7 -33 -39 -33 -27 0 -34 4 -34 19 0 14 -5 18 -20 14 -11 -3
-20 -11 -20 -19 0 -10 -18 -13 -68 -13 -37 0 -110 -8 -162 -18 -87 -16 -163
-18 -905 -18 -730 0 -819 2 -903 18 -50 9 -113 18 -140 18 -42 1 -44 2 -17 9
l30 8 -37 1 c-20 0 -43 4 -52 7 -11 4 -16 1 -16 -10 0 -13 -12 -16 -72 -14
-40 0 -58 3 -40 5 26 4 32 9 32 28 0 25 -7 29 -72 40 l-38 6 0 -41 0 -40 -72
2 c-40 0 -58 3 -40 5 32 4 32 5 32 59 0 59 3 56 -77 82 l-33 10 0 -79 0 -79
-30 0 -30 0 -2 98 -2 97 -3 -97 -4 -98 -34 0 -35 0 0 115 c0 63 -2 115 -4 115
-2 0 -11 3 -20 6 -14 5 -16 -9 -16 -115 l0 -121 -35 0 -34 0 -3 146 -3 146
-32 26 -33 25 0 -166 0 -166 33 -4 c31 -4 31 -4 -5 -5 l-38 -2 0 168 c0 156
-1 168 -20 180 -20 12 -20 10 -20 -168 l0 -180 -35 0 -35 0 0 201 c0 110 -4
208 -10 218 -5 10 -21 26 -35 35 l-25 16 0 -229 0 -230 33 -4 c31 -4 31 -4 -5
-5 l-38 -2 0 233 c0 221 -1 235 -20 252 -20 18 -20 17 -20 -233 l0 -252 -35 0
-35 0 0 280 0 280 -35 38 -34 37 -1 -312 0 -312 33 -4 c31 -4 31 -4 -5 -5
l-38 -2 0 314 c0 286 -2 316 -17 332 -17 17 -18 2 -21 -314 l-2 -332 -73 2
c-39 0 -57 3 -39 5 l32 4 0 243 c0 134 3 297 6 362 6 98 4 122 -8 134 -8 8
-35 39 -61 68 l-47 53 0 -436 0 -435 -72 2 c-40 0 -59 3 -42 5 30 4 31 6 38
65 3 34 6 247 6 473 l0 413 -60 88 -60 88 0 -567 0 -567 -35 0 -35 0 0 -190 0
-190 -37 2 c-37 1 -37 1 -5 5 l32 4 0 184 0 184 -32 4 c-32 4 -32 4 5 5 l37 2
-2 628 -3 627 -57 120 -58 120 0 -753 0 -752 -30 0 -30 0 0 844 c0 576 -3 854
-11 873 -15 40 -59 215 -59 236 0 13 8 17 35 17 l35 0 0 1390 c0 840 -4 1390
-9 1390 -19 0 -24 60 -7 79 9 10 16 35 16 56 l0 38 -23 -21 c-27 -25 -37 -20
-37 18 0 16 11 37 30 55 24 23 30 37 30 69 l0 41 -35 -38 c-39 -43 -55 -41
-55 7 0 25 10 42 45 76 32 31 45 52 45 72 0 15 -2 28 -5 28 -3 0 -21 -18 -41
-40 -41 -45 -61 -50 -67 -17 -2 12 -5 -1147 -6 -2575 l-1 -2598 -35 0 -35 0 0
4140 0 4140 35 0 35 0 0 -1282 0 -1282 60 59 c38 37 60 68 60 82 0 20 -4 17
-39 -20 -22 -23 -43 -39 -46 -35 -4 4 -4 28 0 54 5 34 17 57 46 89 29 31 39
51 39 75 l0 33 -26 -24 -27 -24 7 40 c4 22 16 58 27 81 18 39 19 75 19 1282
l0 1242 30 0 30 0 2 -1136 3 -1135 58 56 c49 48 57 61 57 92 0 35 0 36 -20 18
-25 -23 -25 -14 0 27 20 32 20 51 20 1216 l0 1182 35 0 35 0 0 -1127 0 -1127
60 59 60 59 0 1213 0 1213 35 0 35 0 0 -1177 0 -1177 60 59 c51 50 60 65 60
94 l0 35 -48 -47 c-69 -68 -74 -58 -8 17 l56 64 0 1181 0 1181 35 0 35 0 0
-1146 0 -1145 60 53 60 53 0 1183 0 1182 35 0 35 0 0 -1192 0 -1192 60 59 60
59 0 1193 0 1193 35 0 35 0 0 -1156 0 -1156 39 35 c22 19 49 40 60 47 l21 11
0 1139 0 1140 35 0 35 0 0 -1120z m-5400 -838 c0 -15 317 -999 942 -2925 l162
-498 -1220 -1220 -1219 -1219 -281 0 -280 0 -88 -272 c-48 -150 -121 -377
-162 -504 l-74 -231 0 -507 0 -506 35 0 c19 0 35 -4 35 -10 0 -12 -36 -12
-100 -1 -39 7 -41 9 -12 10 l32 1 -1 498 -1 497 -28 -90 c-16 -49 -56 -178
-89 -286 l-61 -197 0 -151 0 -151 35 0 35 0 0 -65 0 -65 -72 2 c-40 0 -58 3
-40 5 l32 4 -1 202 -1 202 -28 -90 c-62 -198 -80 -263 -80 -293 0 -18 -4 -32
-9 -32 -5 0 -13 -9 -16 -20 -6 -20 -15 -20 -778 -20 l-772 0 3 540 2 540 30 0
30 0 1 -432 0 -433 20 60 c10 33 25 71 33 85 8 14 23 56 35 94 18 58 21 94 21
241 l0 174 -32 4 c-32 4 -32 4 5 5 l37 2 0 75 0 75 35 0 35 0 1 -112 0 -113
20 55 c10 30 24 64 30 76 6 11 12 31 13 45 2 13 32 114 69 224 36 110 118 362
182 560 64 198 143 441 175 540 143 438 579 1782 794 2450 130 402 243 748
250 770 54 151 776 2395 776 2408 0 16 56 17 770 17 728 0 770 -1 770 -18z
m3890 -3957 l0 -3935 -35 0 -35 0 0 3935 0 3935 35 0 35 0 0 -3935z m-190
-220 l0 -3715 -35 0 -35 0 0 3715 0 3715 35 0 35 0 0 -3715z m-190 -230 l0
-3485 -35 0 -35 0 0 3485 0 3485 35 0 35 0 0 -3485z m-190 -245 l0 -3240 -35
0 -35 0 0 -1195 0 -1195 -37 2 c-37 1 -37 1 -5 5 l32 4 0 1189 0 1189 -32 4
c-32 4 -32 4 5 5 l37 2 0 3235 0 3235 35 0 35 0 0 -3240z m-190 -250 l0 -2990
-35 0 -35 0 0 -1290 0 -1290 -37 2 c-37 1 -37 1 -5 5 l32 4 0 1284 0 1284 -32
4 c-32 4 -32 4 5 5 l37 2 0 2985 0 2985 35 0 35 0 0 -2990z m-190 -255 l0
-2735 -30 0 -30 0 0 2735 0 2735 30 0 30 0 0 -2735z m-190 -255 l0 -2480 -30
0 -30 0 0 2480 0 2480 30 0 30 0 0 -2480z m-180 -260 c0 -1567 -3 -2220 -11
-2220 -6 0 -8 -9 -4 -20 6 -18 2 -20 -31 -20 -36 0 -37 0 -19 20 10 11 13 20
7 20 -7 0 -12 10 -12 21 0 18 -2 20 -15 9 -12 -10 -13 -15 -4 -21 8 -4 1 -9
-17 -11 l-29 -3 -3 -1427 -2 -1427 32 -4 c33 -4 32 -4 -4 -5 l-38 -2 0 1415 0
1415 -52 0 c-49 0 -51 1 -34 19 16 18 16 19 -9 24 -19 3 -35 -3 -56 -20 l-29
-25 -2 -1421 -3 -1422 -2 1423 -3 1422 -38 0 -37 0 78 71 c69 64 77 75 77 107
l0 36 -60 -59 c-45 -44 -60 -66 -60 -87 0 -24 -4 -28 -27 -28 -16 0 -39 -9
-53 -20 -14 -11 -33 -20 -42 -20 -17 0 -18 -75 -20 -1407 l-3 -1408 -2 1407
c-3 1289 -4 1407 -19 1410 -12 2 -1 18 40 58 47 46 56 60 56 89 l0 35 -60 -59
c-33 -33 -60 -65 -60 -72 0 -7 -5 -13 -12 -13 -6 0 -22 -10 -35 -22 l-23 -21
0 -1374 0 -1373 -37 2 c-37 1 -37 1 -5 5 l32 4 0 1370 0 1369 -37 0 -37 0 23
17 c23 16 23 17 5 24 -18 7 -18 8 2 8 27 1 54 41 54 78 -1 26 -5 23 -74 -49
-47 -50 -81 -78 -95 -78 l-21 0 0 -1325 0 -1325 -37 2 c-37 1 -37 1 -5 5 l32
4 0 1320 c0 1221 -1 1319 -17 1319 -15 0 -15 2 1 19 17 19 17 20 -16 24 l-33
4 38 1 c36 2 37 3 37 43 l0 40 -62 -65 c-52 -56 -67 -66 -95 -66 l-33 0 0
-1257 c0 -691 -2 -1254 -5 -1251 -3 2 -5 577 -5 1276 l0 1272 -29 0 c-15 0
-36 -9 -46 -20 -13 -14 -31 -20 -62 -20 l-43 0 -3 -1177 -2 -1178 -3 1198 -2
1198 -22 -3 -23 -3 -5 -1195 -5 -1195 -3 1178 -2 1177 -47 0 c-44 0 -46 1 -29
19 16 18 16 19 -15 23 -23 4 -39 -1 -60 -19 l-29 -25 -2 -1081 -3 -1082 -2
1082 -3 1082 -30 3 -31 3 71 72 c62 63 71 76 68 104 l-3 32 -57 -59 c-42 -43
-58 -67 -58 -86 0 -25 -3 -28 -35 -28 l-35 0 0 75 c0 60 -3 73 -14 69 -10 -4
-16 5 -21 26 -5 25 -2 37 14 54 12 12 21 35 21 51 l0 29 -30 -29 c-22 -21 -31
-25 -34 -14 -3 8 -10 26 -15 40 -8 23 -5 31 35 70 33 32 44 51 44 73 l0 30
-50 -49 c-42 -41 -52 -47 -60 -35 -6 10 -10 -56 -10 -187 l0 -203 -35 0 -35 0
0 295 0 295 22 0 c35 0 168 137 168 172 0 16 -3 28 -8 28 -4 0 -43 -36 -87
-80 -44 -44 -83 -80 -87 -80 -4 0 -10 16 -14 35 -6 35 -5 37 191 228 173 169
197 195 194 219 -4 26 -18 14 -202 -169 -138 -137 -201 -193 -208 -186 -30 30
-1 64 299 367 275 278 302 308 302 338 -1 31 -16 18 -315 -286 l-313 -320 -16
39 -17 39 331 331 c237 237 330 336 330 353 0 16 6 22 22 22 14 0 47 25 90 67
58 58 68 72 68 103 0 34 -12 23 -423 -388 -232 -232 -425 -422 -429 -422 -3 0
-11 13 -16 29 -10 28 -1 37 429 467 411 411 439 441 439 474 0 34 -14 21 -443
-408 -243 -243 -445 -442 -449 -442 -3 0 -10 14 -13 31 -7 31 5 44 544 583
518 518 551 553 551 586 0 34 -20 15 -560 -525 -307 -307 -562 -556 -566 -553
-3 4 -7 20 -7 36 -2 25 64 95 566 601 347 351 567 581 567 592 0 15 7 19 35
19 l35 0 1 -107 c1 -60 1 -125 -1 -147 -1 -28 1 -36 10 -31 31 19 40 -53 10
-80 -13 -12 -20 -31 -20 -53 l0 -36 28 27 c15 15 31 27 34 27 4 0 9 -14 13
-31 6 -27 2 -36 -34 -73 -32 -32 -41 -49 -41 -76 l0 -34 50 49 49 49 10 -25
c7 -16 10 147 10 489 l1 512 35 0 35 0 0 -619 c0 -404 4 -629 10 -647 8 -19 8
-30 0 -38 -5 -5 -10 -23 -10 -39 0 -26 2 -28 16 -16 13 10 17 10 25 -2 16 -25
10 -55 -16 -79 -17 -16 -25 -34 -25 -59 l0 -35 33 32 c18 18 36 32 40 32 3 0
9 -16 13 -36 6 -33 3 -39 -40 -83 -34 -34 -46 -55 -46 -76 l0 -29 53 52 c29
29 56 49 60 46 4 -4 7 464 7 1039 l0 1047 35 0 35 0 0 -1169 c0 -784 3 -1179
10 -1197 8 -19 8 -30 0 -38 -5 -5 -10 -23 -10 -39 0 -26 2 -28 16 -16 13 10
17 10 25 -2 16 -25 10 -55 -16 -79 -19 -18 -25 -34 -25 -64 l0 -40 33 32 c18
18 36 32 39 32 4 0 9 -14 13 -31 6 -28 2 -36 -39 -78 -36 -37 -46 -54 -46 -80
l0 -34 59 54 59 54 1 1593 1 1592 35 0 35 0 0 -1710 c0 -1505 2 -1715 15
-1747 14 -32 14 -38 0 -53 -8 -9 -15 -32 -15 -50 0 -33 0 -33 21 -14 17 16 22
16 29 4 17 -27 10 -56 -20 -85 -22 -21 -30 -38 -30 -64 l0 -35 38 37 c21 20
41 37 44 37 4 0 9 -14 13 -31 6 -28 2 -37 -44 -83 -41 -42 -51 -58 -51 -86 l0
-34 60 59 60 59 0 2153 0 2153 35 0 35 0 0 -2220z m-1435 2160 l15 -29 -1161
-1158 -1161 -1158 -46 -3 -47 -3 1190 1191 c654 654 1191 1190 1192 1190 1 0
9 -13 18 -30z m39 -106 c19 -49 22 -46 -1089 -1150 l-1096 -1089 -47 -3 -47
-3 1130 1131 c621 621 1133 1130 1136 1130 4 0 10 -7 13 -16z m42 -141 l7 -36
-1035 -1034 -1036 -1033 -48 0 -49 0 1070 1070 c588 589 1073 1070 1077 1070
4 0 10 -16 14 -37z m40 -129 c6 -34 3 -39 -47 -86 -30 -27 -468 -463 -974
-969 l-920 -919 -48 0 c-26 0 -47 2 -47 4 0 2 435 437 966 967 532 530 982
981 1002 1002 19 20 41 37 48 37 7 0 16 -16 20 -36z m8974 -2034 l0 -1960 35
0 35 0 0 -1045 0 -1045 -35 0 -35 0 0 1040 0 1040 -37 2 c-37 1 -37 1 -5 5
l32 4 0 1954 0 1954 -32 4 c-32 4 -32 4 5 5 l37 2 0 -1960z m-8935 1919 c7
-31 -11 -50 -906 -945 l-914 -914 -45 0 -45 0 945 945 c520 520 948 945 952
945 3 0 10 -14 13 -31z m40 -126 c6 -25 -51 -84 -847 -880 l-853 -853 -45 0
-45 0 884 884 c487 487 888 883 892 881 4 -3 10 -17 14 -32z m33 -113 c11 -30
9 -31 -781 -826 l-792 -796 -43 4 -43 3 816 823 c449 452 820 822 825 822 4 0
13 -13 18 -30z m36 -116 c3 -9 6 -24 6 -33 0 -11 -309 -329 -722 -745 l-723
-727 -47 1 c-27 0 -48 3 -48 7 0 8 1512 1512 1521 1512 4 1 10 -6 13 -15z m42
-140 l7 -36 -659 -659 c-363 -363 -669 -662 -680 -665 -12 -3 -36 -4 -55 -2
-33 3 -23 15 661 701 382 383 700 697 707 697 7 0 15 -16 19 -36z m39 -115 c8
-37 55 13 -725 -771 l-475 -478 -50 0 -50 0 640 640 c352 352 643 640 647 640
3 0 10 -14 13 -31z m8898 -3272 c31 -4 31 -4 -5 -5 l-38 -2 2 1613 3 1612 2
-1607 3 -1607 33 -4z m-8858 3148 c6 -28 -23 -59 -568 -610 -316 -319 -577
-577 -581 -574 -3 3 -9 19 -12 36 -6 29 15 51 463 504 257 261 515 523 572
582 58 59 108 104 113 99 4 -4 10 -21 13 -37z m42 -119 l10 -34 -578 -578
c-318 -318 -581 -576 -583 -573 -3 3 -8 19 -12 35 -5 27 24 59 523 564 291
294 546 554 567 578 22 23 44 42 51 42 6 0 16 -15 22 -34z m42 -128 l11 -32
-567 -568 c-313 -313 -576 -573 -585 -578 -14 -9 -18 -5 -24 26 l-7 36 574
574 c316 316 577 574 580 574 4 0 12 -14 18 -32z m37 -124 l7 -36 -573 -567
c-315 -311 -576 -567 -580 -569 -4 -2 -13 11 -19 29 l-11 32 573 573 c314 316
577 574 584 574 7 0 15 -16 19 -36z m39 -115 c8 -37 46 4 -510 -559 -210 -212
-436 -442 -504 -512 -69 -70 -127 -125 -131 -123 -4 3 -11 21 -15 42 l-7 36
574 574 c315 315 576 573 580 573 3 0 9 -14 13 -31z m41 -127 c7 -33 -2 -41
-569 -610 -317 -317 -578 -574 -581 -571 -3 3 -8 19 -12 36 -6 28 16 52 453
494 252 255 510 517 573 582 62 64 117 114 122 109 4 -4 11 -22 14 -40z m8847
-69 l-33 -4 0 -1229 0 -1229 33 -4 c31 -4 31 -4 -5 -5 l-38 -2 0 1240 0 1240
38 -2 c36 -1 36 -1 5 -5z m190 -770 l-33 -4 0 -844 0 -844 33 -4 c31 -4 31 -4
-5 -5 l-38 -2 0 855 0 855 38 -2 c36 -1 36 -1 5 -5z m-12830 -1696 c31 -4 31
-4 -5 -5 l-38 -2 2 608 3 607 2 -602 3 -602 33 -4z m190 0 c31 -4 31 -4 -5 -5
l-38 -2 2 568 3 567 2 -562 3 -562 33 -4z m-2533 528 l0 -535 -35 0 -35 0 0
535 0 535 35 0 35 0 0 -535z m180 -5 l0 -530 -30 0 -30 0 0 530 0 530 30 0 30
0 0 -530z m-370 -5 l0 -525 -35 0 -35 0 0 525 0 525 35 0 35 0 0 -525z m2913
-518 c31 -4 31 -4 -5 -5 l-38 -2 2 518 3 517 2 -512 3 -512 33 -4z m-3103 498
l0 -505 -35 0 -35 0 0 505 0 505 35 0 35 0 0 -505z m-190 -25 l0 -480 -72 2
c-40 0 -58 3 -40 5 l32 4 0 74 0 74 -32 4 c-32 4 -32 4 5 5 l37 2 0 395 0 395
35 0 35 0 0 -480z m3510 -25 l0 -455 -35 0 -35 0 0 455 0 455 35 0 35 0 0
-455z m12415 -445 l25 0 3 453 2 452 3 -457 2 -458 -35 0 -35 0 2 458 3 457 2
-452 3 -453 25 0z m-16115 430 l0 -440 -72 2 c-40 0 -58 3 -40 5 28 4 32 8 32
33 0 25 -4 29 -32 33 -32 4 -32 4 5 5 l37 2 0 400 0 400 35 0 35 0 0 -440z
m3890 -55 l0 -375 35 0 35 0 0 -280 0 -280 -35 0 -35 0 0 275 0 275 -35 0 -35
0 0 380 0 380 35 0 35 0 0 -375z m-2865 -375 l25 0 3 358 2 357 3 -362 2 -363
-35 0 -35 0 2 363 3 362 2 -357 3 -358 25 0z m-155 295 l0 -305 -35 0 -35 0 0
305 0 305 35 0 35 0 0 -305z m3210 -5 l0 -290 35 0 35 0 0 -305 0 -305 -35 0
-35 0 0 300 0 300 -37 2 c-37 1 -37 1 -5 5 l32 4 0 284 0 284 -32 4 c-32 4
-32 4 5 5 l37 2 0 -290z m-3427 -293 c31 -4 31 -4 -5 -5 l-38 -2 2 248 3 247
2 -242 3 -242 33 -4z m3617 198 l0 -195 35 0 35 0 0 -320 0 -320 -35 0 -35 0
0 315 0 315 -37 2 c-37 1 -37 1 -5 5 l32 4 0 189 0 189 -32 4 c-32 4 -32 4 5
5 l37 2 0 -195z m-3807 168 l-33 -4 0 -179 0 -179 33 -4 c31 -4 31 -4 -5 -5
l-38 -2 0 190 0 190 38 -2 c36 -1 36 -1 5 -5z m5387 -218 l0 -155 -35 0 -35 0
-2 -767 -3 -768 -2 767 -3 767 -33 4 c-31 4 -31 4 6 5 l37 2 0 150 0 150 35 0
35 0 0 -155z m-5577 108 l-33 -4 0 -124 0 -124 33 -4 c31 -4 31 -4 -5 -5 l-38
-2 0 135 0 135 38 -2 c36 -1 36 -1 5 -5z m4165 -80 c-10 -2 -26 -2 -35 0 -10
3 -2 5 17 5 19 0 27 -2 18 -5z m10092 -98 l0 -85 -35 0 -35 0 0 85 0 85 35 0
35 0 0 -85z m1775 -75 c21 0 24 5 28 48 l3 47 2 -52 2 -53 -35 0 -35 0 2 53 2
52 3 -47 c4 -43 7 -48 28 -48z m-10645 20 c0 -28 -3 -30 -35 -30 l-35 0 -2
-642 -3 -643 -2 642 -3 642 -33 4 c-31 4 -31 4 6 5 32 2 37 5 37 27 0 22 4 25
35 25 32 0 35 -2 35 -30z m-2450 -95 l0 -75 -35 0 -35 0 0 75 0 75 35 0 35 0
0 -75z m190 -60 l0 -135 -35 0 -35 0 0 135 0 135 35 0 35 0 0 -135z m190 -60
l0 -195 -35 0 -35 0 0 195 0 195 35 0 35 0 0 -195z m180 -45 l0 -240 -30 0
-30 0 0 240 0 240 30 0 30 0 0 -240z m668 233 c-10 -2 -26 -2 -35 0 -10 3 -2
5 17 5 19 0 27 -2 18 -5z m92 -313 l0 -320 -35 0 -35 0 0 320 0 320 35 0 35 0
0 -320z m83 313 c-23 -3 -33 -10 -36 -26 -4 -18 -5 -17 -6 6 -1 25 2 27 37 25
36 -1 36 -1 5 -5z m107 -298 l0 -305 -35 0 -35 0 0 305 0 305 35 0 35 0 0
-305z m83 298 l-33 -4 0 -134 0 -134 33 -4 c31 -4 31 -4 -5 -5 l-38 -2 0 145
0 145 38 -2 c36 -1 36 -1 5 -5z m107 -268 l0 -275 -35 0 -35 0 0 275 0 275 35
0 35 0 0 -275z m110 5 l0 -270 -35 0 -35 0 0 270 0 270 35 0 35 0 0 -270z m80
40 l0 -230 -35 0 -35 0 0 230 0 230 35 0 35 0 0 -230z m110 -165 l0 -395 -35
0 -35 0 0 395 0 395 35 0 35 0 0 -395z m70 230 l0 -165 -30 0 -30 0 0 165 0
165 30 0 30 0 0 -165z m190 85 l0 -80 -35 0 -35 0 -3 -442 -2 -443 -3 517 -2
517 -32 4 c-18 2 0 5 40 5 l72 2 0 -80z m463 73 l-33 -4 0 -879 0 -879 33 -4
c31 -4 31 -4 -5 -5 l-38 -2 0 890 0 890 38 -2 c36 -1 36 -1 5 -5z m190 0 l-33
-4 0 -994 0 -994 33 -4 c31 -4 31 -4 -5 -5 l-38 -2 0 1005 0 1005 38 -2 c36
-1 36 -1 5 -5z m1727 -1408 l0 -1415 -35 0 -35 0 0 1415 0 1415 35 0 35 0 0
-1415z m190 50 l0 -1365 -35 0 -35 0 0 1365 0 1365 35 0 35 0 0 -1365z m548
1358 c-10 -2 -26 -2 -35 0 -10 3 -2 5 17 5 19 0 27 -2 18 -5z m175 0 l-33 -4
-3 -942 -2 -942 -3 948 -2 947 38 -2 c36 -1 36 -1 5 -5z m190 0 l-33 -4 0
-779 0 -779 33 -4 c31 -4 31 -4 -5 -5 l-38 -2 0 790 0 790 38 -2 c36 -1 36 -1
5 -5z m217 -603 l0 -610 -35 0 -35 0 0 610 0 610 35 0 35 0 0 -610z m190 200
l0 -410 -35 0 -35 0 0 410 0 410 35 0 35 0 0 -410z m5360 210 l0 -200 -35 0
-35 0 0 200 0 200 35 0 35 0 0 -200z m180 -255 l0 -455 -30 0 -30 0 0 455 0
455 30 0 30 0 0 -455z m760 -720 l0 -1175 -35 0 -35 0 0 1175 0 1175 35 0 35
0 0 -1175z m190 -85 l0 -1260 -35 0 -35 0 0 1260 0 1260 35 0 35 0 0 -1260z
m190 -50 l0 -1310 -35 0 -35 0 0 1310 0 1310 35 0 35 0 0 -1310z m180 -5 l0
-1315 -30 0 -30 0 0 1315 0 1315 30 0 30 0 0 -1315z m190 40 l0 -1275 -30 0
-30 0 0 1275 0 1275 30 0 30 0 0 -1275z m190 85 l0 -1190 -35 0 -35 0 0 653
c0 358 -3 891 -7 1184 l-6 532 -31 4 c-17 2 2 5 42 5 l72 2 0 -1190z m190 130
l0 -1060 -35 0 -35 0 0 295 0 295 -37 2 c-37 1 -37 1 -5 5 l32 4 0 754 0 754
-32 4 c-18 2 0 5 40 5 l72 2 0 -1060z m98 1053 c-10 -2 -26 -2 -35 0 -10 3 -2
5 17 5 19 0 27 -2 18 -5z m-8300 -2160 c-10 -2 -26 -2 -35 0 -10 3 -2 5 17 5
19 0 27 -2 18 -5z"/>
<path d="M13560 10765 l0 -65 25 16 c21 14 25 24 25 65 0 46 -2 49 -25 49 -24
0 -25 -2 -25 -65z"/>
<path d="M12248 10753 c-42 -43 -58 -66 -58 -86 0 -15 3 -27 6 -27 3 0 31 25
61 55 46 46 54 59 51 85 l-3 31 -57 -58z"/>
<path d="M12056 10721 c-47 -47 -57 -63 -54 -86 l3 -28 58 56 c45 44 57 63 57
87 0 16 -1 30 -3 30 -1 0 -29 -26 -61 -59z"/>
<path d="M13458 10673 c-81 -79 -88 -89 -88 -126 l0 -39 91 91 c83 84 90 94
87 126 l-3 34 -87 -86z"/>
<path d="M11868 10693 c-48 -49 -58 -64 -58 -93 l0 -35 61 61 c52 53 60 65 57
93 l-3 32 -57 -58z"/>
<path d="M13267 10642 c-75 -76 -87 -92 -87 -121 l0 -35 90 94 c70 73 90 100
90 122 0 15 -1 28 -3 28 -1 0 -42 -39 -90 -88z"/>
<path d="M11678 10663 c-44 -45 -58 -66 -58 -88 0 -30 0 -29 61 31 49 49 60
66 57 88 -3 26 -4 26 -60 -31z"/>
<path d="M11486 10641 c-50 -51 -57 -62 -54 -92 l3 -34 58 60 c46 48 57 66 57
92 0 18 -1 33 -3 33 -1 0 -29 -26 -61 -59z"/>
<path d="M13773 10668 c-17 -18 -23 -36 -23 -68 l0 -45 26 26 c21 21 25 34 22
68 l-3 43 -22 -24z"/>
<path d="M11298 10613 c-48 -49 -58 -64 -58 -93 l0 -35 61 61 c52 53 60 65 57
93 l-3 32 -57 -58z"/>
<path d="M13583 10648 c-17 -18 -23 -36 -23 -68 l0 -45 26 26 c21 21 25 34 22
68 l-3 43 -22 -24z"/>
<path d="M11108 10591 c-50 -52 -58 -66 -58 -98 l0 -38 61 61 c55 55 60 64 57
98 l-3 38 -57 -61z"/>
<path d="M12248 10593 c-51 -52 -58 -63 -58 -98 l0 -40 61 61 c55 55 60 64 57
98 l-3 37 -57 -58z"/>
<path d="M12057 10562 c-41 -42 -57 -65 -57 -85 0 -15 2 -27 3 -27 2 0 29 25
60 56 44 42 57 62 57 85 0 16 -1 29 -3 29 -1 0 -28 -26 -60 -58z"/>
<path d="M13678 10563 c-48 -49 -58 -64 -58 -93 l0 -35 61 61 c52 53 60 65 57
93 l-3 32 -57 -58z"/>
<path d="M13457 10512 c-83 -83 -88 -91 -85 -126 l3 -36 88 95 c76 82 88 99
85 125 -3 31 -3 30 -91 -58z"/>
<path d="M11866 10531 c-47 -47 -57 -63 -54 -86 3 -27 4 -27 61 31 41 43 57
66 57 86 0 16 -1 28 -3 28 -1 0 -29 -26 -61 -59z"/>
<path d="M13267 10483 c-81 -80 -87 -90 -87 -127 l0 -40 90 94 c74 79 89 100
90 128 0 17 -1 32 -3 32 -1 0 -41 -39 -90 -87z"/>
<path d="M11678 10503 c-48 -49 -58 -64 -58 -93 l0 -35 61 61 c52 53 60 65 57
93 l-3 32 -57 -58z"/>
<path d="M13897 10465 c-68 -73 -88 -100 -85 -119 3 -21 11 -16 91 59 83 77
88 84 85 118 l-3 36 -88 -94z"/>
<path d="M14068 10476 c-55 -59 -68 -79 -68 -105 l0 -32 90 83 c62 57 90 90
90 105 0 44 -41 25 -112 -51z"/>
<path d="M13100 10471 c-176 -177 -231 -241 -228 -262 2 -18 28 3 151 126 121
122 147 152 147 176 0 16 -1 28 -2 28 -2 -1 -32 -31 -68 -68z"/>
<path d="M11488 10473 c-44 -45 -58 -66 -58 -88 0 -30 0 -29 61 31 49 49 60
66 57 88 -3 26 -4 26 -60 -31z"/>
<path d="M13773 10498 c-16 -17 -23 -37 -23 -63 l0 -40 26 26 c20 20 25 34 22
63 l-3 38 -22 -24z"/>
<path d="M11298 10453 c-48 -49 -58 -64 -58 -93 l0 -35 61 61 c52 53 60 65 57
93 l-3 32 -57 -58z"/>
<path d="M12433 10448 c-49 -49 -63 -70 -63 -93 0 -29 1 -29 66 36 53 54 65
71 62 93 -3 26 -5 25 -65 -36z"/>
<path d="M13583 10478 c-17 -18 -23 -36 -23 -68 l0 -45 26 26 c21 21 25 34 22
68 l-3 43 -22 -24z"/>
<path d="M11108 10423 c-48 -49 -58 -64 -58 -93 l0 -35 61 61 c52 53 60 65 57
93 l-3 32 -57 -58z"/>
<path d="M12248 10423 c-48 -49 -58 -64 -58 -93 l0 -35 61 61 c52 53 60 65 57
93 l-3 32 -57 -58z"/>
<path d="M10923 10401 c-42 -46 -53 -65 -53 -92 l0 -33 60 59 c49 49 60 65 60
92 0 18 -3 32 -7 32 -5 -1 -32 -27 -60 -58z"/>
<path d="M12058 10403 c-51 -52 -58 -63 -58 -98 l0 -40 61 61 c55 55 60 64 57
98 l-3 37 -57 -58z"/>
<path d="M13678 10393 c-44 -45 -58 -66 -58 -88 0 -30 0 -29 61 31 49 49 60
66 57 88 -3 26 -4 26 -60 -31z"/>
<path d="M10738 10373 c-48 -49 -58 -64 -58 -93 l0 -35 61 61 c52 53 60 65 57
93 l-3 32 -57 -58z"/>
<path d="M13457 10345 c-86 -80 -88 -82 -85 -123 l3 -41 88 94 c75 80 88 99
85 124 -3 28 -4 28 -91 -54z"/>
<path d="M11868 10363 c-39 -39 -58 -67 -58 -83 0 -22 6 -19 61 36 44 44 60
67 57 83 -3 19 -9 15 -60 -36z"/>
<path d="M11676 10341 c-47 -47 -57 -63 -54 -86 3 -28 3 -28 60 31 42 43 58
67 58 87 0 15 -1 27 -3 27 -1 0 -29 -26 -61 -59z"/>
<path d="M13267 10315 c-84 -77 -88 -84 -85 -118 l3 -37 88 95 c68 73 88 101
85 119 -3 21 -11 16 -91 -59z"/>
<path d="M13897 10305 c-75 -80 -88 -99 -85 -124 3 -28 4 -28 91 54 86 80 88
84 85 123 l-3 41 -88 -94z"/>
<path d="M13017 10233 c-133 -133 -147 -149 -147 -181 l0 -35 68 63 c37 35
104 102 149 150 68 70 82 91 83 118 0 17 -2 32 -3 32 -2 0 -70 -66 -150 -147z"/>
<path d="M11488 10313 c-48 -49 -58 -64 -58 -93 l0 -35 61 61 c52 53 60 65 57
93 l-3 32 -57 -58z"/>
<path d="M13773 10348 c-16 -17 -23 -37 -23 -63 l0 -40 26 26 c20 20 25 34 22
63 l-3 38 -22 -24z"/>
<path d="M12431 10286 c-50 -51 -62 -68 -59 -90 3 -26 5 -25 66 35 47 47 62
69 62 91 0 15 -1 28 -3 28 -1 0 -31 -29 -66 -64z"/>
<path d="M11298 10283 c-44 -45 -58 -66 -58 -88 0 -30 0 -29 61 31 49 49 60
66 57 88 -3 26 -4 26 -60 -31z"/>
<path d="M13583 10308 c-16 -17 -23 -37 -23 -63 l0 -40 26 26 c20 20 25 34 22
63 l-3 38 -22 -24z"/>
<path d="M11108 10259 c-43 -47 -58 -72 -58 -94 0 -30 0 -30 61 31 53 53 60
65 57 94 l-3 33 -57 -64z"/>
<path d="M12248 10263 c-44 -45 -58 -66 -58 -88 0 -30 0 -29 61 31 49 49 60
66 57 88 -3 26 -4 26 -60 -31z"/>
<path d="M10928 10243 c-48 -49 -58 -64 -58 -93 l0 -35 61 61 c52 53 60 65 57
93 l-3 32 -57 -58z"/>
<path d="M13678 10243 c-44 -45 -58 -66 -58 -88 0 -30 0 -29 61 31 49 49 60
66 57 88 -3 26 -4 26 -60 -31z"/>
<path d="M12058 10233 c-48 -49 -58 -64 -58 -93 l0 -35 61 61 c52 53 60 65 57
93 l-3 32 -57 -58z"/>
<path d="M10738 10213 c-48 -49 -58 -64 -58 -93 l0 -35 61 61 c52 53 60 65 57
93 l-3 32 -57 -58z"/>
<path d="M11868 10213 c-51 -52 -58 -63 -58 -98 l0 -40 61 61 c55 55 60 64 57
98 l-3 37 -57 -58z"/>
<path d="M13457 10176 c-83 -78 -88 -86 -85 -119 l3 -36 88 94 c69 75 88 100
85 120 -3 22 -10 18 -91 -59z"/>
<path d="M10548 10183 c-48 -49 -58 -64 -58 -93 l0 -35 61 61 c52 53 60 65 57
93 l-3 32 -57 -58z"/>
<path d="M13267 10155 c-87 -80 -88 -82 -85 -123 l3 -42 88 95 c74 80 88 99
85 124 -3 28 -4 28 -91 -54z"/>
<path d="M11678 10173 c-39 -39 -58 -67 -58 -83 0 -22 6 -19 61 36 44 44 60
67 57 83 -3 19 -9 15 -60 -36z"/>
<path d="M12782 10151 c-64 -70 -70 -81 -50 -81 13 0 46 20 76 48 48 41 53 51
50 80 l-3 34 -73 -81z"/>
<path d="M10358 10153 c-48 -49 -58 -64 -58 -93 l0 -35 61 61 c52 53 60 65 57
93 l-3 32 -57 -58z"/>
<path d="M11488 10153 c-44 -45 -58 -66 -58 -88 0 -30 0 -29 61 31 49 49 60
66 57 88 -3 26 -4 26 -60 -31z"/>
<path d="M13018 10065 c-124 -124 -148 -153 -148 -178 0 -29 1 -28 74 40 41
38 109 106 151 151 62 66 76 86 73 108 -3 24 -15 15 -150 -121z"/>
<path d="M13773 10188 c-17 -18 -23 -36 -23 -68 l0 -45 26 26 c21 21 25 34 22
68 l-3 43 -22 -24z"/>
<path d="M12433 10128 c-53 -53 -63 -69 -63 -98 l0 -35 66 66 c57 57 65 70 62
98 l-3 32 -62 -63z"/>
<path d="M11298 10123 c-48 -49 -58 -64 -58 -93 l0 -35 61 61 c52 53 60 65 57
93 l-3 32 -57 -58z"/>
<path d="M13583 10158 c-16 -17 -23 -37 -23 -63 l0 -40 26 26 c20 20 25 34 22
63 l-3 38 -22 -24z"/>
<path d="M12248 10103 c-44 -45 -58 -66 -58 -88 0 -30 0 -29 61 31 49 49 60
66 57 88 -3 26 -4 26 -60 -31z"/>
<path d="M11108 10093 c-44 -45 -58 -66 -58 -88 0 -30 0 -29 61 31 49 49 60
66 57 88 -3 26 -4 26 -60 -31z"/>
<path d="M13678 10083 c-48 -49 -58 -64 -58 -93 l0 -35 61 61 c52 53 60 65 57
93 l-3 32 -57 -58z"/>
<path d="M10928 10073 c-44 -45 -58 -66 -58 -88 0 -30 0 -29 61 31 49 49 60
66 57 88 -3 26 -4 26 -60 -31z"/>
<path d="M12058 10073 c-44 -45 -58 -66 -58 -88 0 -30 0 -29 61 31 49 49 60
66 57 88 -3 26 -4 26 -60 -31z"/>
<path d="M10738 10053 c-48 -49 -58 -64 -58 -93 l0 -35 61 61 c52 53 60 65 57
93 l-3 32 -57 -58z"/>
<path d="M13457 10025 c-83 -78 -88 -85 -85 -119 l3 -36 88 95 c68 73 88 101
85 119 -3 21 -11 16 -91 -59z"/>
<path d="M11868 10043 c-48 -49 -58 -64 -58 -93 l0 -35 61 61 c52 53 60 65 57
93 l-3 32 -57 -58z"/>
<path d="M10548 10023 c-48 -49 -58 -64 -58 -93 l0 -35 61 61 c52 53 60 65 57
93 l-3 32 -57 -58z"/>
<path d="M11678 10023 c-51 -52 -58 -63 -58 -98 l0 -40 61 61 c55 55 60 64 57
98 l-3 37 -57 -58z"/>
<path d="M12802 10022 c-43 -49 -53 -67 -50 -91 l3 -31 53 48 c51 45 53 49 50
91 l-3 45 -53 -62z"/>
<path d="M13304 10022 c-28 -26 -68 -60 -88 -77 -30 -25 -36 -36 -36 -69 l0
-39 91 90 c74 74 90 95 87 116 -3 26 -3 26 -54 -21z"/>
<path d="M10358 9993 c-42 -43 -58 -66 -58 -86 0 -15 4 -27 8 -27 4 0 31 24
61 54 44 45 52 58 49 85 l-3 32 -57 -58z"/>
<path d="M13018 9905 c-133 -133 -148 -152 -148 -183 l0 -34 74 69 c41 38 109
106 151 151 66 71 76 85 73 113 -3 31 -5 30 -150 -116z"/>
<path d="M11488 9983 c-39 -39 -58 -67 -58 -83 0 -22 6 -19 61 36 44 44 60 67
57 83 -3 19 -9 15 -60 -36z"/>
<path d="M12618 9983 c-36 -37 -58 -67 -58 -81 0 -22 1 -22 38 8 51 41 84 86
80 111 -2 17 -12 10 -60 -38z"/>
<path d="M11298 9963 c-44 -45 -58 -66 -58 -88 0 -30 0 -29 61 31 49 49 60 66
57 88 -3 26 -4 26 -60 -31z"/>
<path d="M12433 9958 c-43 -43 -63 -71 -63 -88 0 -22 7 -18 66 41 48 48 65 72
62 88 -3 19 -10 14 -65 -41z"/>
<path d="M13582 9997 c-16 -17 -22 -36 -22 -68 l1 -44 24 28 c18 20 25 40 25
68 0 21 -1 39 -3 39 -2 0 -13 -10 -25 -23z"/>
<path d="M12248 9943 c-48 -49 -58 -64 -58 -93 l0 -35 61 61 c52 53 60 65 57
93 l-3 32 -57 -58z"/>
<path d="M11108 9933 c-48 -49 -58 -64 -58 -93 l0 -35 61 61 c52 53 60 65 57
93 l-3 32 -57 -58z"/>
<path d="M10928 9913 c-44 -45 -58 -66 -58 -88 0 -30 0 -29 61 31 49 49 60 66
57 88 -3 26 -4 26 -60 -31z"/>
<path d="M12056 9911 c-47 -47 -57 -63 -54 -86 3 -27 4 -27 60 31 42 43 58 67
58 87 0 15 -1 27 -3 27 -1 0 -29 -26 -61 -59z"/>
<path d="M13458 9866 c-81 -75 -88 -84 -88 -120 l0 -38 91 91 c78 78 90 94 87
119 -3 29 -3 29 -90 -52z"/>
<path d="M10738 9883 c-44 -45 -58 -66 -58 -88 0 -30 0 -29 61 31 49 49 60 66
57 88 -3 26 -4 26 -60 -31z"/>
<path d="M11868 9883 c-44 -45 -58 -66 -58 -88 0 -30 0 -29 61 31 49 49 60 66
57 88 -3 26 -4 26 -60 -31z"/>
<path d="M10548 9863 c-48 -49 -58 -64 -58 -93 l0 -35 61 61 c52 53 60 65 57
93 l-3 32 -57 -58z"/>
<path d="M13268 9837 c-82 -77 -88 -85 -88 -122 l0 -39 90 94 c68 72 90 102
90 123 0 15 -1 27 -2 27 -2 -1 -42 -38 -90 -83z"/>
<path d="M11678 9853 c-48 -49 -58 -64 -58 -93 l0 -35 61 61 c52 53 60 65 57
93 l-3 32 -57 -58z"/>
<path d="M12802 9852 c-40 -45 -53 -68 -50 -86 3 -25 4 -25 56 22 50 44 53 50
50 86 l-3 40 -53 -62z"/>
<path d="M10358 9833 c-48 -49 -58 -64 -58 -93 l0 -35 61 61 c52 53 60 65 57
93 l-3 32 -57 -58z"/>
<path d="M11488 9833 c-51 -52 -58 -63 -58 -98 l0 -40 61 61 c55 55 60 64 57
98 l-3 37 -57 -58z"/>
<path d="M12612 9831 c-43 -49 -53 -67 -50 -91 l3 -30 53 48 c51 45 53 49 50
91 l-3 44 -53 -62z"/>
<path d="M13018 9745 c-145 -145 -148 -149 -148 -192 0 -43 0 -43 35 -43 l35
0 0 -1005 0 -1005 60 0 60 0 0 710 0 710 35 0 35 0 0 -710 c0 -703 0 -710 20
-710 20 0 20 7 20 975 0 913 -1 975 -17 984 -17 9 -17 10 0 28 9 11 17 35 17
53 l0 34 -44 -43 c-43 -42 -46 -43 -76 -31 -28 11 -29 14 -16 29 8 9 42 45 76
81 44 48 60 72 60 93 0 27 -4 25 -85 -50 -47 -43 -92 -88 -100 -100 -12 -17
-25 -23 -54 -23 -21 0 -41 3 -44 6 -4 4 59 72 139 152 129 129 145 148 142
175 -3 29 -8 24 -150 -118z"/>
<path d="M10168 9804 c-45 -45 -58 -66 -58 -89 0 -30 0 -30 61 31 50 50 60 66
57 89 -3 27 -3 27 -60 -31z"/>
<path d="M12433 9798 c-43 -43 -63 -71 -63 -88 0 -22 7 -18 66 41 48 48 65 72
62 88 -3 19 -10 14 -65 -41z"/>
<path d="M11298 9794 c-39 -40 -58 -67 -58 -84 0 -22 6 -19 61 36 45 45 60 67
57 84 -3 21 -8 17 -60 -36z"/>
<path d="M11108 9773 c-44 -45 -58 -66 -58 -88 0 -30 0 -29 61 31 49 49 60 66
57 88 -3 26 -4 26 -60 -31z"/>
<path d="M12248 9773 c-39 -39 -58 -67 -58 -83 0 -22 6 -19 61 36 44 44 60 67
57 83 -3 19 -9 15 -60 -36z"/>
<path d="M10928 9753 c-48 -49 -58 -64 -58 -93 l0 -35 61 61 c52 53 60 65 57
93 l-3 32 -57 -58z"/>
<path d="M12058 9753 c-48 -49 -58 -64 -58 -93 l0 -35 61 61 c52 53 60 65 57
93 l-3 32 -57 -58z"/>
<path d="M10738 9723 c-44 -45 -58 -66 -58 -88 0 -30 0 -29 61 31 49 49 60 66
57 88 -3 26 -4 26 -60 -31z"/>
<path d="M11866 9721 c-47 -47 -57 -63 -54 -86 3 -27 4 -27 60 31 42 43 58 67
58 87 0 15 -1 27 -3 27 -1 0 -29 -26 -61 -59z"/>
<path d="M13268 9677 c-82 -77 -88 -85 -88 -122 l0 -40 90 95 c67 71 89 102
90 123 0 15 -1 27 -2 27 -2 -1 -42 -38 -90 -83z"/>
<path d="M10548 9693 c-44 -45 -58 -66 -58 -88 0 -30 0 -29 61 31 49 49 60 66
57 88 -3 26 -4 26 -60 -31z"/>
<path d="M11678 9693 c-44 -45 -58 -66 -58 -88 0 -30 0 -29 61 31 49 49 60 66
57 88 -3 26 -4 26 -60 -31z"/>
<path d="M12802 9692 c-43 -49 -53 -67 -50 -91 l3 -31 53 48 c51 45 53 49 50
91 l-3 45 -53 -62z"/>
<path d="M10358 9673 c-48 -49 -58 -64 -58 -93 l0 -35 61 61 c52 53 60 65 57
93 l-3 32 -57 -58z"/>
<path d="M11488 9663 c-48 -49 -58 -64 -58 -93 l0 -35 61 61 c52 53 60 65 57
93 l-3 32 -57 -58z"/>
<path d="M12613 9662 l-53 -60 0 -1051 0 -1051 55 0 55 0 0 1035 0 1035 -22 2
c-13 0 -29 1 -35 1 -20 -1 -15 8 23 41 31 27 35 36 32 70 l-3 39 -52 -61z"/>
<path d="M12433 9648 l-63 -64 0 -1037 0 -1037 25 0 25 0 0 1055 0 1055 28 0
c42 0 54 13 50 54 l-3 37 -62 -63z"/>
<path d="M10168 9643 c-48 -49 -58 -64 -58 -93 l0 -35 61 61 c52 53 60 65 57
93 l-3 32 -57 -58z"/>
<path d="M11298 9643 c-51 -52 -58 -63 -58 -98 l0 -40 61 61 c55 55 60 64 57
98 l-3 37 -57 -58z"/>
<path d="M9977 9622 c-50 -50 -57 -63 -57 -97 l0 -38 60 63 c49 51 60 70 60
97 0 18 -1 33 -3 33 -1 0 -28 -26 -60 -58z"/>
<path d="M12247 9612 l-57 -58 0 -1012 c0 -1005 0 -1012 20 -1012 20 0 20 7
20 850 l0 850 35 0 35 0 3 -857 2 -858 3 1017 2 1017 -35 -6 c-19 -3 -35 -3
-35 0 0 2 16 22 35 43 19 22 35 49 35 62 0 12 -1 22 -3 22 -1 0 -28 -26 -60
-58z"/>
<path d="M11107 9605 c-46 -44 -57 -61 -57 -87 l0 -31 60 63 c38 40 60 72 60
87 0 13 -1 23 -3 23 -1 0 -28 -25 -60 -55z"/>
<path d="M10928 9593 c-44 -45 -58 -66 -58 -88 0 -30 0 -29 61 31 49 49 60 66
57 88 -3 26 -4 26 -60 -31z"/>
<path d="M12058 9583 l-58 -59 0 -976 c0 -881 2 -976 16 -982 9 -3 17 -6 20
-6 2 0 5 278 7 618 l2 617 3 -621 2 -622 23 -4 c12 -2 28 -3 35 0 9 3 12 224
12 979 l0 975 -32 -7 c-18 -4 -41 -9 -50 -11 -29 -9 -21 8 33 62 36 36 50 58
47 73 -3 19 -10 15 -60 -36z"/>
<path d="M10738 9563 c-48 -49 -58 -64 -58 -93 l0 -35 61 61 c52 53 60 65 57
93 l-3 32 -57 -58z"/>
<path d="M11868 9563 c-48 -49 -58 -64 -58 -93 l0 -35 61 61 c52 53 60 65 57
93 l-3 32 -57 -58z"/>
<path d="M12430 8555 l0 -1055 25 0 25 0 0 1035 0 1035 -22 0 c-20 0 -21 1 -3
20 18 19 17 20 -3 20 l-22 0 0 -1055z"/>
<path d="M10548 9539 c-48 -46 -58 -61 -58 -90 l0 -34 61 61 c50 50 60 66 57
89 l-3 29 -57 -55z"/>
<path d="M11677 9532 c-46 -46 -57 -64 -57 -90 l0 -33 60 60 c47 47 60 67 60
91 0 16 -1 30 -3 30 -1 0 -28 -26 -60 -58z"/>
<path d="M12834 9569 c-13 -15 -28 -20 -51 -17 l-33 4 0 -1028 0 -1028 55 0
55 0 0 1045 c0 575 -2 1045 -3 1045 -2 0 -12 -9 -23 -21z"/>
<path d="M12495 8540 c0 -569 1 -802 2 -517 2 284 2 750 0 1035 -1 284 -2 51
-2 -518z"/>
<path d="M10358 9503 c-44 -45 -58 -66 -58 -88 0 -30 0 -29 61 31 49 49 60 66
57 88 -3 26 -4 26 -60 -31z"/>
<path d="M11488 9503 c-44 -45 -58 -66 -58 -88 0 -30 0 -29 61 31 49 49 60 66
57 88 -3 26 -4 26 -60 -31z"/>
<path d="M10168 9483 c-48 -49 -58 -64 -58 -93 l0 -35 61 61 c52 53 60 65 57
93 l-3 32 -57 -58z"/>
<path d="M11298 9473 c-48 -49 -58 -64 -58 -93 l0 -35 61 61 c52 53 60 65 57
93 l-3 32 -57 -58z"/>
<path d="M9978 9453 c-48 -49 -58 -64 -58 -93 l0 -35 61 61 c52 53 60 65 57
93 l-3 32 -57 -58z"/>
<path d="M11108 9453 c-51 -52 -58 -63 -58 -98 l0 -40 61 61 c55 55 60 64 57
98 l-3 37 -57 -58z"/>
<path d="M10927 9428 c-43 -46 -57 -69 -55 -87 3 -22 7 -20 61 34 43 43 57 64
57 86 0 16 -1 29 -2 29 -2 0 -29 -28 -61 -62z"/>
<path d="M10736 9401 c-46 -46 -57 -64 -54 -85 3 -25 4 -25 61 30 43 43 57 64
57 85 0 16 -1 29 -3 29 -1 0 -29 -26 -61 -59z"/>
<path d="M11906 9431 c-9 -10 -34 -26 -56 -36 l-40 -18 0 -877 c0 -867 0 -878
20 -883 19 -5 20 1 23 351 l2 357 3 -361 c2 -390 0 -374 53 -374 19 0 19 20
19 930 0 512 -2 930 -3 930 -2 0 -11 -8 -21 -19z"/>
<path d="M13180 8475 l0 -975 35 0 35 0 0 395 0 395 35 0 35 0 0 -394 c0 -350
2 -395 16 -400 9 -3 18 -6 20 -6 2 0 3 421 2 936 l-3 937 -83 43 c-46 24 -85
44 -87 44 -3 0 -5 -439 -5 -975z"/>
<path d="M10547 9372 c-46 -47 -58 -65 -55 -86 3 -25 4 -25 61 28 51 46 58 57
55 85 l-3 32 -58 -59z"/>
<path d="M11677 9373 l-57 -59 2 -809 c3 -753 4 -810 20 -813 14 -3 18 7 21
65 l3 68 2 -78 c2 -73 3 -78 28 -87 14 -6 30 -10 35 -10 5 0 9 327 9 845 0
800 -1 844 -17 838 -17 -6 -17 -5 0 14 12 13 17 33 15 53 l-3 31 -58 -58z"/>
<path d="M10357 9348 c-49 -45 -57 -58 -57 -88 l0 -35 61 61 c49 49 60 66 57
88 -3 26 -3 26 -61 -26z"/>
<path d="M11487 9342 c-47 -47 -58 -65 -55 -86 3 -25 4 -25 61 30 49 47 58 61
55 85 l-3 30 -58 -59z"/>
<path d="M10167 9312 c-40 -41 -58 -66 -55 -80 3 -17 10 -13 61 33 48 43 58
57 55 79 -3 26 -4 26 -61 -32z"/>
<path d="M11298 9313 c-44 -45 -58 -66 -58 -88 0 -30 0 -29 61 31 49 49 60 66
57 88 -3 26 -4 26 -60 -31z"/>
<path d="M13370 8426 l0 -936 24 -6 c39 -10 46 2 46 82 l0 74 35 0 35 0 0 -80
c0 -73 2 -80 20 -80 20 0 20 7 20 883 l0 884 -82 54 c-46 30 -86 56 -90 57 -5
2 -8 -417 -8 -932z"/>
<path d="M9978 9293 c-48 -49 -58 -64 -58 -93 l0 -35 61 61 c52 53 60 65 57
93 l-3 32 -57 -58z"/>
<path d="M11108 9283 c-48 -49 -58 -64 -58 -93 l0 -35 61 61 c52 53 60 65 57
93 l-3 32 -57 -58z"/>
<path d="M10928 9273 c-51 -52 -58 -63 -58 -98 l0 -40 61 61 c55 55 60 64 57
98 l-3 37 -57 -58z"/>
<path d="M9786 9261 c-47 -47 -57 -63 -54 -86 3 -27 4 -27 60 31 42 43 58 67
58 87 0 15 -1 27 -3 27 -1 0 -29 -26 -61 -59z"/>
<path d="M10732 9230 c-37 -40 -53 -65 -50 -80 3 -19 10 -15 61 36 36 37 57
67 57 81 0 13 -3 22 -7 22 -5 -1 -32 -27 -61 -59z"/>
<path d="M10548 9213 c-44 -45 -58 -66 -58 -88 0 -30 0 -29 61 31 49 49 60 66
57 88 -3 26 -4 26 -60 -31z"/>
<path d="M10357 9182 c-46 -47 -58 -65 -55 -85 3 -25 5 -25 61 30 48 46 58 61
55 85 l-3 29 -58 -59z"/>
<path d="M11488 9183 l-58 -59 0 -679 c0 -628 1 -678 16 -663 15 15 20 14 58
-14 l41 -29 3 375 c1 207 1 545 0 751 l-3 376 -57 -58z"/>
<path d="M13560 8355 c0 -531 4 -885 9 -885 5 0 16 -3 25 -6 15 -6 16 75 16
868 0 835 -1 876 -18 891 -10 10 -22 17 -25 17 -4 0 -7 -398 -7 -885z"/>
<path d="M10168 9163 c-48 -49 -58 -64 -58 -93 l0 -35 61 61 c52 53 60 65 57
93 l-3 32 -57 -58z"/>
<path d="M12240 8371 l0 -849 25 -4 25 -5 0 853 0 854 -25 0 -25 0 0 -849z"/>
<path d="M11296 9151 c-47 -47 -57 -63 -54 -86 3 -28 3 -28 60 31 42 43 58 67
58 87 0 15 -1 27 -3 27 -1 0 -29 -26 -61 -59z"/>
<path d="M13620 8331 c0 -473 4 -862 8 -865 5 -3 32 -8 60 -12 l52 -7 0 823 0
822 -46 42 c-26 22 -53 45 -60 49 -12 7 -14 -132 -14 -852z"/>
<path d="M9978 9123 c-39 -39 -58 -67 -58 -83 0 -22 6 -19 61 36 44 44 60 67
57 83 -3 19 -9 15 -60 -36z"/>
<path d="M11108 9123 c-44 -45 -58 -66 -58 -88 0 -30 0 -29 61 31 49 49 60 66
57 88 -3 26 -4 26 -60 -31z"/>
<path d="M9786 9101 c-50 -50 -57 -62 -54 -91 l3 -33 57 59 c46 47 58 66 58
92 0 17 -1 32 -3 32 -1 0 -29 -26 -61 -59z"/>
<path d="M10928 9104 c-50 -48 -58 -61 -58 -92 l0 -37 61 61 c52 52 60 65 57
92 l-3 31 -57 -55z"/>
<path d="M10738 9083 c-51 -52 -58 -63 -58 -98 l0 -40 61 61 c55 55 60 64 57
98 l-3 37 -57 -58z"/>
<path d="M10547 9044 c-45 -43 -57 -62 -55 -81 3 -23 6 -21 61 33 36 37 57 66
57 81 0 13 -1 23 -3 23 -1 0 -28 -25 -60 -56z"/>
<path d="M13752 8264 l3 -829 23 -3 22 -3 0 809 0 809 -25 23 -25 24 2 -830z"/>
<path d="M10356 9021 c-46 -46 -57 -64 -54 -85 3 -25 4 -25 61 30 43 43 57 64
57 85 0 16 -1 29 -3 29 -1 0 -29 -26 -61 -59z"/>
<path d="M10168 8995 c-44 -46 -58 -67 -58 -90 0 -30 0 -30 61 31 50 51 60 66
57 90 l-3 29 -57 -60z"/>
<path d="M11297 8992 l-57 -58 0 -436 c0 -395 2 -439 17 -466 17 -29 17 -31 0
-50 -9 -10 -17 -34 -17 -52 l0 -34 30 29 30 29 22 -22 22 -22 -52 -53 c-45
-46 -52 -58 -52 -92 l1 -40 59 63 60 64 0 599 c0 329 -1 599 -3 599 -1 0 -28
-26 -60 -58z"/>
<path d="M9978 8973 c-48 -49 -58 -64 -58 -93 l0 -35 61 61 c52 53 60 65 57
93 l-3 32 -57 -58z"/>
<path d="M11108 8963 c-44 -45 -58 -66 -58 -88 0 -30 0 -29 61 31 49 49 60 66
57 88 -3 26 -4 26 -60 -31z"/>
<path d="M13810 8227 l0 -793 78 -24 c42 -13 83 -26 90 -28 9 -3 12 145 12
718 l0 721 -32 32 c-18 18 -57 63 -87 100 -30 37 -56 67 -58 67 -2 0 -3 -357
-3 -793z"/>
<path d="M10928 8943 c-44 -45 -58 -66 -58 -88 0 -30 0 -29 61 31 49 49 60 66
57 88 -3 26 -4 26 -60 -31z"/>
<path d="M9788 8933 c-39 -39 -58 -67 -58 -83 0 -22 6 -19 61 36 44 44 60 67
57 83 -3 19 -9 15 -60 -36z"/>
<path d="M10738 8913 c-48 -49 -58 -64 -58 -93 l0 -35 61 61 c52 53 60 65 57
93 l-3 32 -57 -58z"/>
<path d="M10548 8893 c-51 -52 -58 -63 -58 -98 l0 -40 61 61 c55 55 60 64 57
98 l-3 37 -57 -58z"/>
<path d="M10358 8854 c-40 -39 -58 -65 -58 -82 0 -24 2 -23 49 19 55 50 75 79
69 103 -2 12 -18 2 -60 -40z"/>
<path d="M10168 8833 c-44 -45 -58 -66 -58 -88 0 -30 0 -29 61 31 49 49 60 66
57 88 -3 26 -4 26 -60 -31z"/>
<path d="M9978 8804 c-44 -45 -58 -66 -58 -89 0 -30 0 -30 61 31 50 50 60 66
57 89 -3 28 -3 27 -60 -31z"/>
<path d="M11108 8803 c-44 -45 -58 -66 -58 -88 0 -30 0 -29 61 31 49 49 60 66
57 88 -3 26 -4 26 -60 -31z"/>
<path d="M9788 8783 c-48 -49 -58 -64 -58 -93 l0 -35 61 61 c52 53 60 65 57
93 l-3 32 -57 -58z"/>
<path d="M10928 8783 c-44 -45 -58 -66 -58 -88 0 -30 0 -29 61 31 49 49 60 66
57 88 -3 26 -4 26 -60 -31z"/>
<path d="M14000 8106 l0 -724 51 -17 c28 -10 63 -24 78 -31 14 -8 32 -14 39
-14 9 0 12 158 12 755 l0 755 -90 0 -90 0 0 -724z"/>
<path d="M14192 8073 l3 -757 51 -20 c28 -12 57 -26 65 -32 8 -6 24 -15 37
-18 l22 -7 0 795 0 796 -90 0 -90 0 2 -757z"/>
<path d="M14380 8032 l0 -798 55 -27 55 -27 0 825 0 825 -55 0 -55 0 0 -798z"/>
<path d="M14502 7998 l3 -833 60 -30 c33 -17 72 -39 88 -49 l27 -18 0 881 0
881 -90 0 -90 0 2 -832z"/>
<path d="M14690 7941 l0 -890 30 -21 c17 -12 30 -19 30 -15 0 3 27 -15 60 -40
l60 -46 0 950 0 951 -90 0 -90 0 0 -889z"/>
<path d="M10738 8753 c-44 -45 -58 -66 -58 -88 0 -30 0 -29 61 31 49 49 60 66
57 88 -3 26 -4 26 -60 -31z"/>
<path d="M10548 8723 c-48 -49 -58 -64 -58 -93 l0 -35 61 61 c52 53 60 65 57
93 l-3 32 -57 -58z"/>
<path d="M10358 8703 c-51 -52 -58 -63 -58 -98 l0 -40 61 61 c55 55 60 64 57
98 l-3 37 -57 -58z"/>
<path d="M10167 8663 c-39 -38 -57 -64 -57 -81 0 -25 0 -25 22 -6 60 53 98
100 98 121 0 13 -1 23 -3 23 -1 0 -28 -25 -60 -57z"/>
<path d="M9978 8643 c-44 -45 -58 -66 -58 -88 0 -30 0 -29 61 31 49 49 60 66
57 88 -3 26 -4 26 -60 -31z"/>
<path d="M11108 8643 c-48 -48 -58 -65 -58 -93 l0 -34 46 44 46 45 -5 -48 c-4
-40 -12 -56 -46 -91 -29 -30 -41 -50 -41 -71 l0 -29 39 38 c42 41 51 36 51
-27 0 -24 -11 -43 -46 -78 -36 -37 -45 -52 -42 -75 l3 -28 44 42 c47 45 61 46
61 4 0 -20 -15 -43 -55 -82 -49 -48 -55 -59 -55 -95 l0 -40 60 60 60 61 -2
277 -3 278 -57 -58z"/>
<path d="M10928 8623 c-44 -45 -58 -66 -58 -88 0 -30 0 -29 61 31 49 49 60 66
57 88 -3 26 -4 26 -60 -31z"/>
<path d="M9787 8617 c-51 -46 -58 -57 -55 -85 l3 -32 58 56 c43 43 57 63 57
85 0 16 -1 29 -2 29 -2 0 -29 -24 -61 -53z"/>
<path d="M9608 8603 c-48 -49 -58 -64 -58 -93 l0 -35 61 61 c52 53 60 65 57
93 l-3 32 -57 -58z"/>
<path d="M10738 8593 c-44 -45 -58 -66 -58 -88 0 -30 0 -29 61 31 49 49 60 66
57 88 -3 26 -4 26 -60 -31z"/>
<path d="M10548 8563 c-44 -45 -58 -66 -58 -88 0 -30 0 -29 61 31 49 49 60 66
57 88 -3 26 -4 26 -60 -31z"/>
<path d="M10358 8543 c-51 -52 -58 -63 -58 -98 l0 -40 61 61 c55 55 60 64 57
98 l-3 37 -57 -58z"/>
<path d="M10168 8513 c-51 -52 -58 -63 -58 -98 l0 -40 61 61 c55 55 60 64 57
98 l-3 37 -57 -58z"/>
<path d="M9978 8475 c-40 -38 -58 -64 -58 -80 0 -14 2 -25 4 -25 2 0 29 25 60
56 37 37 56 64 56 80 0 13 -1 24 -2 24 -2 0 -29 -25 -60 -55z"/>
<path d="M10928 8463 c-48 -49 -58 -64 -58 -93 l0 -35 61 61 c52 53 60 65 57
93 l-3 32 -57 -58z"/>
<path d="M9788 8453 c-44 -45 -58 -66 -58 -88 0 -30 0 -29 61 31 49 49 60 66
57 88 -3 26 -4 26 -60 -31z"/>
<path d="M9606 8441 c-49 -50 -57 -63 -54 -90 l3 -32 58 57 c46 47 57 64 57
91 0 18 -1 33 -3 33 -1 0 -29 -26 -61 -59z"/>
<path d="M10738 8433 c-44 -45 -58 -66 -58 -88 0 -30 0 -29 61 31 49 49 60 66
57 88 -3 26 -4 26 -60 -31z"/>
<path d="M10546 8401 c-46 -46 -57 -64 -54 -85 3 -25 4 -25 61 30 43 43 57 64
57 85 0 16 -1 29 -3 29 -1 0 -29 -26 -61 -59z"/>
<path d="M10358 8373 c-44 -45 -58 -66 -58 -88 0 -30 0 -29 61 31 49 49 60 66
57 88 -3 26 -4 26 -60 -31z"/>
<path d="M10168 8353 c-51 -52 -58 -63 -58 -98 l0 -40 61 61 c55 55 60 64 57
98 l-3 37 -57 -58z"/>
<path d="M9978 8323 c-51 -52 -58 -63 -58 -98 l0 -40 61 61 c55 55 60 64 57
98 l-3 37 -57 -58z"/>
<path d="M10928 8303 c-44 -45 -58 -66 -58 -88 0 -30 0 -29 61 31 49 49 60 66
57 88 -3 26 -4 26 -60 -31z"/>
<path d="M9788 8286 c-49 -45 -58 -59 -58 -87 l1 -34 59 63 c40 42 60 71 60
87 0 14 -1 25 -2 25 -2 0 -29 -25 -60 -54z"/>
<path d="M9608 8273 c-44 -45 -58 -66 -58 -88 0 -30 0 -29 61 31 49 49 60 66
57 88 -3 26 -4 26 -60 -31z"/>
<path d="M10738 8273 c-48 -49 -58 -64 -58 -93 l0 -35 61 61 c52 53 60 65 57
93 l-3 32 -57 -58z"/>
<path d="M10548 8243 c-44 -45 -58 -66 -58 -88 0 -30 0 -29 61 31 49 49 60 66
57 88 -3 26 -4 26 -60 -31z"/>
<path d="M10356 8211 c-46 -47 -57 -64 -54 -85 3 -27 4 -26 61 30 42 43 57 65
57 86 0 15 -1 28 -3 28 -1 0 -29 -26 -61 -59z"/>
<path d="M10168 8183 c-44 -45 -58 -66 -58 -88 0 -30 0 -29 61 31 49 49 60 66
57 88 -3 26 -4 26 -60 -31z"/>
<path d="M9978 8163 c-51 -52 -58 -63 -58 -98 l0 -40 61 61 c55 55 60 64 57
98 l-3 37 -57 -58z"/>
<path d="M9788 8133 c-51 -52 -58 -63 -58 -98 l0 -40 61 61 c55 55 60 64 57
98 l-3 37 -57 -58z"/>
<path d="M10928 8133 c-44 -45 -58 -66 -58 -88 0 -30 0 -29 61 31 49 49 60 66
57 88 -3 26 -4 26 -60 -31z"/>
<path d="M10738 8113 c-44 -45 -58 -66 -58 -88 0 -30 0 -29 61 31 49 49 60 66
57 88 -3 26 -4 26 -60 -31z"/>
<path d="M10548 8083 c-48 -49 -58 -64 -58 -93 l0 -35 61 61 c52 53 60 65 57
93 l-3 32 -57 -58z"/>
<path d="M10357 8052 c-41 -42 -57 -65 -57 -85 0 -15 2 -27 5 -27 3 0 30 26
60 58 39 40 55 65 55 85 0 15 -1 27 -3 27 -1 0 -28 -26 -60 -58z"/>
<path d="M10167 8026 c-50 -47 -58 -58 -55 -85 l3 -31 58 54 c50 46 58 57 55
84 l-3 31 -58 -53z"/>
<path d="M9978 7993 c-44 -45 -58 -66 -58 -88 0 -30 0 -29 61 31 49 49 60 66
57 88 -3 26 -4 26 -60 -31z"/>
<path d="M11108 7993 c-48 -49 -58 -64 -58 -93 l0 -35 61 61 c52 53 60 65 57
93 l-3 32 -57 -58z"/>
<path d="M10928 7983 c-51 -52 -58 -63 -58 -98 l0 -40 61 61 c55 55 60 64 57
98 l-3 37 -57 -58z"/>
<path d="M9788 7973 c-51 -52 -58 -63 -58 -98 l0 -40 61 61 c55 55 60 64 57
98 l-3 37 -57 -58z"/>
<path d="M10738 7943 c-44 -45 -58 -66 -58 -88 0 -30 0 -29 61 31 49 49 60 66
57 88 -3 26 -4 26 -60 -31z"/>
<path d="M10548 7923 c-44 -45 -58 -66 -58 -88 0 -30 0 -29 61 31 49 49 60 66
57 88 -3 26 -4 26 -60 -31z"/>
<path d="M10358 7886 c-45 -46 -58 -67 -58 -90 l0 -31 61 61 c50 51 60 66 57
90 l-3 29 -57 -59z"/>
<path d="M10168 7863 c-48 -49 -58 -64 -58 -93 l0 -35 61 63 c50 53 60 69 57
93 l-3 30 -57 -58z"/>
<path d="M9978 7837 c-52 -47 -58 -57 -58 -93 l0 -39 61 62 c51 52 60 66 57
92 l-3 31 -57 -53z"/>
<path d="M11108 7833 c-48 -49 -58 -64 -58 -93 l0 -35 61 61 c52 53 60 65 57
93 l-3 32 -57 -58z"/>
<path d="M10928 7813 c-48 -49 -58 -64 -58 -93 l0 -35 61 61 c52 53 60 65 57
93 l-3 32 -57 -58z"/>
<path d="M9788 7803 c-44 -45 -58 -66 -58 -88 0 -30 0 -29 61 31 49 49 60 66
57 88 -3 26 -4 26 -60 -31z"/>
<path d="M10738 7792 c-51 -51 -58 -62 -58 -97 l0 -40 61 61 c55 55 60 64 57
97 l-3 36 -57 -57z"/>
<path d="M10548 7753 c-44 -45 -58 -66 -58 -88 0 -30 0 -29 61 31 49 49 60 66
57 88 -3 26 -4 26 -60 -31z"/>
<path d="M10358 7733 c-44 -45 -58 -66 -58 -88 0 -30 0 -29 61 31 49 49 60 66
57 88 -3 26 -4 26 -60 -31z"/>
<path d="M10168 7699 c-43 -48 -58 -72 -58 -94 0 -30 0 -30 61 31 53 53 60 65
57 94 l-3 33 -57 -64z"/>
<path d="M11298 7693 c-44 -45 -58 -66 -58 -88 0 -30 0 -29 61 31 49 49 60 66
57 88 -3 26 -4 26 -60 -31z"/>
<path d="M9977 7672 c-47 -47 -57 -64 -57 -91 l0 -34 60 64 c42 46 60 72 60
92 0 15 -1 27 -3 27 -1 0 -28 -26 -60 -58z"/>
<path d="M11106 7671 c-50 -50 -57 -62 -54 -91 l3 -33 58 58 c46 48 57 65 57
92 0 18 -1 33 -3 33 -1 0 -29 -26 -61 -59z"/>
<path d="M9786 7651 c-49 -50 -57 -63 -54 -90 l3 -32 58 56 c47 47 57 63 57
91 0 19 -1 34 -3 34 -1 0 -29 -26 -61 -59z"/>
<path d="M10928 7653 c-48 -49 -58 -64 -58 -93 l0 -35 61 61 c52 53 60 65 57
93 l-3 32 -57 -58z"/>
<path d="M10738 7623 c-48 -49 -58 -64 -58 -93 l0 -35 61 61 c52 53 60 65 57
93 l-3 32 -57 -58z"/>
<path d="M10548 7593 c-48 -49 -58 -64 -58 -93 l0 -35 61 61 c52 53 60 65 57
93 l-3 32 -57 -58z"/>
<path d="M10358 7563 c-44 -45 -58 -66 -58 -88 0 -30 0 -29 61 31 49 49 60 66
57 88 -3 26 -4 26 -60 -31z"/>
<path d="M10168 7543 c-44 -45 -58 -66 -58 -88 0 -30 0 -29 61 31 49 49 60 66
57 88 -3 26 -4 26 -60 -31z"/>
<path d="M9978 7503 c-44 -45 -58 -66 -58 -88 0 -30 0 -29 61 31 49 49 60 66
57 88 -3 26 -4 26 -60 -31z"/>
<path d="M11108 7507 c-49 -45 -58 -59 -58 -88 l0 -34 61 61 c49 49 60 66 57
88 -3 27 -3 26 -60 -27z"/>
<path d="M10927 7492 c-46 -46 -57 -64 -57 -90 0 -18 2 -32 4 -32 3 0 30 25
60 56 46 46 56 61 56 90 0 19 -1 34 -3 34 -1 0 -28 -26 -60 -58z"/>
<path d="M9800 7496 c-49 -51 -56 -54 -63 -28 -3 9 -5 -565 -6 -1275 l-1
-1293 60 0 60 0 0 1236 c-1 1199 -1 1236 -19 1220 -17 -16 -19 -15 -35 8 -22
34 -21 35 20 77 28 29 35 43 32 68 l-3 32 -45 -45z"/>
<path d="M10738 7463 c-48 -49 -58 -64 -58 -93 l0 -35 61 61 c52 53 60 65 57
93 l-3 32 -57 -58z"/>
<path d="M10548 7433 c-48 -49 -58 -64 -58 -93 l0 -35 61 61 c52 53 60 65 57
93 l-3 32 -57 -58z"/>
<path d="M10358 7403 c-48 -49 -58 -64 -58 -93 l0 -35 61 61 c52 53 60 65 57
93 l-3 32 -57 -58z"/>
<path d="M10168 7373 c-44 -45 -58 -66 -58 -88 0 -30 0 -29 61 31 49 49 60 66
57 88 -3 26 -4 26 -60 -31z"/>
<path d="M9978 7353 c-44 -45 -58 -66 -58 -88 0 -30 0 -29 61 31 49 49 60 66
57 88 -3 26 -4 26 -60 -31z"/>
<path d="M10928 7333 c-48 -49 -58 -64 -58 -93 l0 -35 61 61 c52 53 60 65 57
93 l-3 32 -57 -58z"/>
<path d="M10736 7301 c-49 -49 -57 -63 -54 -89 l3 -32 58 56 c47 47 57 62 57
90 0 19 -1 34 -3 34 -1 0 -29 -26 -61 -59z"/>
<path d="M10548 7273 c-48 -49 -58 -64 -58 -93 l0 -35 61 61 c52 53 60 65 57
93 l-3 32 -57 -58z"/>
<path d="M10358 7243 c-48 -49 -58 -64 -58 -93 l0 -35 61 61 c52 53 60 65 57
93 l-3 32 -57 -58z"/>
<path d="M10168 7213 c-48 -49 -58 -64 -58 -93 l0 -35 61 61 c52 53 60 65 57
93 l-3 32 -57 -58z"/>
<path d="M9986 7191 c-35 -36 -52 -47 -58 -38 -4 6 -8 -498 -8 -1120 l0 -1133
60 0 60 0 0 1091 c0 978 -2 1090 -15 1079 -13 -11 -20 -9 -40 10 l-25 24 41
42 c31 31 40 48 37 68 -3 27 -3 27 -52 -23z"/>
<path d="M10738 7143 c-48 -49 -58 -64 -58 -93 l0 -35 61 61 c52 53 60 65 57
93 l-3 32 -57 -58z"/>
<path d="M10548 7113 c-48 -49 -58 -64 -58 -93 l0 -35 61 61 c52 53 60 65 57
93 l-3 32 -57 -58z"/>
<path d="M10358 7083 c-48 -49 -58 -64 -58 -93 l0 -35 61 61 c52 53 60 65 57
93 l-3 32 -57 -58z"/>
<path d="M10168 7053 l-58 -59 0 -1047 0 -1047 60 0 60 0 0 968 c0 740 -3 971
-12 980 -9 9 -9 15 0 24 7 7 12 28 12 47 l0 35 -29 -28 c-31 -30 -56 -30 -68
0 -4 10 11 33 46 68 45 45 52 58 49 85 l-3 32 -57 -58z"/>
<path d="M10548 6953 c-50 -50 -58 -64 -58 -96 l0 -37 60 62 c53 54 61 67 58
96 l-3 33 -57 -58z"/>
<path d="M10358 6923 c-48 -49 -58 -64 -58 -93 l0 -35 61 61 c52 53 60 65 57
93 l-3 32 -57 -58z"/>
<path d="M10379 6784 c-32 -31 -39 -35 -58 -25 l-21 12 0 -936 0 -935 60 0 60
0 0 894 0 895 -21 6 -21 7 22 23 c16 17 20 33 18 59 l-3 37 -36 -37z"/>
<path d="M10490 5771 l0 -871 60 0 60 0 0 834 0 834 -33 20 c-19 11 -46 27
-60 37 l-27 17 0 -871z"/>
<path d="M10680 5715 c0 -808 0 -815 20 -815 19 0 20 7 20 105 l0 105 38 -2
c36 -1 36 -1 5 -5 l-33 -4 0 -105 c0 -96 1 -104 19 -104 54 0 51 -54 51 796
l0 784 -60 30 -60 30 0 -815z"/>
<path d="M10870 5671 c0 -764 0 -771 20 -771 20 0 20 7 20 380 l0 380 35 0 35
0 3 -382 c1 -211 3 -45 5 368 l2 750 -52 20 c-29 10 -56 21 -60 22 -4 2 -8
-343 -8 -767z"/>
<path d="M11050 5636 l0 -733 51 -7 c28 -4 53 -6 54 -4 2 2 5 328 7 724 l3
722 -51 16 c-28 9 -54 16 -57 16 -4 0 -7 -330 -7 -734z"/>
<path d="M11240 5569 l0 -751 23 -30 c12 -16 37 -46 54 -66 l32 -37 1 807 0
808 -22 4 c-13 3 -38 7 -55 10 l-33 6 0 -751z"/>
<path d="M11430 5446 l0 -832 53 -54 52 -53 3 878 c1 483 0 880 -2 882 -1 2
-26 5 -55 7 l-51 4 0 -832z"/>
<path d="M11620 5357 c0 -893 1 -917 32 -917 4 0 8 407 8 905 0 898 0 905 -20
905 -20 0 -20 -7 -20 -893z"/>
<path d="M11670 5333 l0 -919 29 -17 c16 -9 32 -17 35 -17 3 0 5 420 4 933
l-3 932 -32 3 -33 3 0 -918z"/>
<path d="M11860 5272 l0 -970 30 -11 c23 -8 32 -7 36 2 2 7 3 446 2 977 l-3
965 -32 3 -33 3 0 -969z"/>
<path d="M11810 5285 c0 -934 0 -944 20 -955 20 -11 20 -8 20 945 0 948 0 955
-20 955 -20 0 -20 -7 -20 -945z"/>
<path d="M12000 5241 c0 -980 0 -989 20 -994 20 -5 20 0 20 989 0 987 0 994
-20 994 -20 0 -20 -7 -20 -989z"/>
<path d="M12050 5230 l0 -1000 26 -10 c14 -6 30 -10 35 -10 5 0 9 390 9 1010
l0 1010 -35 0 -35 0 0 -1000z"/>
<path d="M12190 5210 c0 -1013 0 -1020 20 -1020 20 0 20 7 20 1020 0 1013 0
1020 -20 1020 -20 0 -20 -7 -20 -1020z"/>
<path d="M12240 5200 l0 -1030 25 0 25 0 0 1030 0 1030 -25 0 -25 0 0 -1030z"/>
<path d="M12305 5200 c0 -569 1 -802 2 -518 2 285 2 751 0 1036 -1 284 -2 51
-2 -518z"/>
<path d="M12370 5196 l0 -1034 25 -4 25 -5 0 1038 0 1039 -25 0 -25 0 0 -1034z"/>
<path d="M12432 5188 l3 -1043 23 -3 22 -3 0 1045 0 1046 -25 0 -25 0 2 -1042z"/>
<path d="M12495 5190 c0 -575 1 -810 2 -522 2 287 2 757 0 1045 -1 287 -2 52
-2 -523z"/>
<path d="M12560 5188 l0 -1043 55 -3 55 -2 0 1045 0 1045 -55 0 -55 0 0 -1042z"/>
<path d="M12750 5189 l0 -1028 38 0 c20 1 45 3 55 6 16 4 17 62 17 1028 l0
1024 -55 -1 -55 -2 0 -1027z"/>
<path d="M12940 5194 l0 -1000 50 6 c28 4 55 11 60 16 7 7 9 359 8 990 l-3
979 -57 5 -58 5 0 -1001z"/>
<path d="M13130 5204 c0 -868 1 -956 16 -950 9 3 18 6 20 6 2 0 4 425 4 944 0
851 -2 944 -16 950 -9 3 -18 6 -20 6 -2 0 -4 -430 -4 -956z"/>
<path d="M13180 5205 c0 -520 3 -945 6 -945 11 0 49 23 56 34 4 6 8 421 8 923
0 892 0 913 -19 923 -11 5 -27 10 -35 10 -14 0 -16 -94 -16 -945z"/>
<path d="M13320 5215 c0 -883 0 -886 20 -875 20 11 20 19 18 883 -3 821 -4
872 -20 875 -17 3 -18 -44 -18 -883z"/>
<path d="M13370 5220 l0 -871 29 15 c16 9 31 23 35 31 3 9 6 387 6 840 l0 824
-22 15 c-50 35 -48 75 -48 -854z"/>
<path d="M13510 5240 c0 -434 4 -790 8 -790 31 0 32 25 32 792 0 757 0 767
-20 778 -20 11 -20 8 -20 -780z"/>
<path d="M13560 5239 l0 -770 25 18 24 18 1 741 0 741 -25 11 -25 12 0 -771z"/>
<path d="M13625 5250 c0 -399 1 -562 2 -362 2 199 2 525 0 725 -1 199 -2 36
-2 -363z"/>
<path d="M13700 5257 c0 -362 4 -657 8 -657 31 0 32 27 32 650 0 614 0 627
-20 645 -20 18 -20 17 -20 -638z"/>
<path d="M13750 5248 l0 -621 25 23 25 23 0 582 c0 551 -1 583 -18 598 -10 10
-22 17 -25 17 -4 0 -7 -280 -7 -622z"/>
<path d="M13815 5250 c0 -305 1 -430 2 -277 2 152 2 402 0 555 -1 152 -2 27
-2 -278z"/>
<path d="M13880 5248 l0 -453 36 55 c68 103 74 134 74 395 0 201 -3 239 -19
286 -17 52 -78 169 -87 169 -2 0 -4 -204 -4 -452z"/>
<path d="M10920 5270 l0 -380 25 0 25 0 0 380 0 380 -25 0 -25 0 0 -380z"/>
<path d="M15093 3885 c-23 -35 -23 -35 -23 -490 l0 -455 25 0 25 0 0 490 c0
270 -1 490 -2 490 -2 0 -13 -16 -25 -35z"/>
<path d="M10920 3050 l0 -110 25 0 c25 0 25 0 25 98 0 96 -1 99 -25 110 l-25
12 0 -110z"/>
<path d="M13763 2983 c-7 -2 -13 -13 -13 -24 0 -14 7 -19 25 -19 20 0 25 5 25
25 0 24 -11 29 -37 18z"/>
<path d="M4400 7527 c-161 -502 -308 -958 -326 -1014 l-32 -103 654 0 c360 0
654 3 654 6 0 10 -648 2015 -653 2020 -1 2 -135 -408 -297 -909z"/>
<path d="M7137 5051 c-37 -36 -63 -67 -58 -70 5 -3 10 -14 12 -24 3 -14 16 -5
62 41 48 49 58 64 55 88 l-3 29 -68 -64z"/>
<path d="M7148 4903 c-48 -49 -58 -64 -58 -93 l0 -35 61 61 c52 53 60 65 57
93 l-3 32 -57 -58z"/>
<path d="M7331 4756 c-41 -42 -52 -59 -49 -80 3 -26 4 -26 61 30 37 37 57 66
57 81 0 13 -4 23 -8 23 -4 0 -32 -24 -61 -54z"/>
<path d="M7148 4733 c-43 -43 -58 -66 -58 -86 0 -25 2 -27 18 -15 10 7 37 34
61 60 31 35 42 54 39 73 -3 25 -5 24 -60 -32z"/>
<path d="M7338 4603 c-48 -49 -58 -64 -58 -93 l0 -35 61 61 c52 53 60 65 57
93 l-3 32 -57 -58z"/>
<path d="M7148 4573 c-44 -45 -58 -66 -58 -88 0 -30 0 -29 61 31 49 49 60 66
57 88 -3 26 -4 26 -60 -31z"/>
<path d="M6958 4543 c-43 -43 -58 -66 -58 -87 l0 -28 29 25 c59 49 93 95 89
122 -3 25 -5 24 -60 -32z"/>
<path d="M7338 4443 c-48 -49 -58 -64 -58 -93 l0 -35 61 61 c52 53 60 65 57
93 l-3 32 -57 -58z"/>
<path d="M7148 4413 c-48 -49 -58 -64 -58 -93 l0 -35 61 61 c52 53 60 65 57
93 l-3 32 -57 -58z"/>
<path d="M6958 4383 c-44 -45 -58 -66 -58 -88 0 -30 0 -29 61 31 49 49 60 66
57 88 -3 26 -4 26 -60 -31z"/>
<path d="M7338 4283 c-48 -49 -58 -64 -58 -93 l0 -35 61 61 c52 53 60 65 57
93 l-3 32 -57 -58z"/>
<path d="M7148 4253 c-48 -49 -58 -64 -58 -93 l0 -35 61 61 c52 53 60 65 57
93 l-3 32 -57 -58z"/>
<path d="M6957 4222 c-46 -47 -58 -65 -55 -85 3 -25 5 -25 61 30 48 46 58 61
55 85 l-3 29 -58 -59z"/>
<path d="M6778 4203 c-44 -45 -58 -66 -58 -88 0 -30 0 -29 61 31 49 49 60 66
57 88 -3 26 -4 26 -60 -31z"/>
<path d="M7528 4141 c-46 -43 -58 -60 -58 -85 l0 -31 61 61 c46 47 60 67 57
85 -3 23 -6 21 -60 -30z"/>
<path d="M7338 4113 c-44 -45 -58 -66 -58 -88 0 -30 0 -29 61 31 49 49 60 66
57 88 -3 26 -4 26 -60 -31z"/>
<path d="M7148 4093 c-48 -49 -58 -64 -58 -93 l0 -35 61 61 c52 53 60 65 57
93 l-3 32 -57 -58z"/>
<path d="M6958 4063 c-48 -49 -58 -64 -58 -93 l0 -35 61 61 c52 53 60 65 57
93 l-3 32 -57 -58z"/>
<path d="M6778 4045 c-45 -46 -58 -65 -58 -89 l0 -31 61 61 c50 50 60 66 57
89 -3 28 -3 27 -60 -30z"/>
<path d="M7528 3993 c-48 -49 -58 -64 -58 -93 l0 -35 61 61 c52 53 60 65 57
93 l-3 32 -57 -58z"/>
<path d="M7338 3953 c-44 -45 -58 -66 -58 -88 0 -30 0 -29 61 31 49 49 60 66
57 88 -3 26 -4 26 -60 -31z"/>
<path d="M7148 3923 c-44 -45 -58 -66 -58 -88 0 -30 0 -29 61 31 49 49 60 66
57 88 -3 26 -4 26 -60 -31z"/>
<path d="M6958 3903 c-46 -46 -58 -65 -58 -90 l0 -32 61 58 c53 51 60 62 57
90 l-3 32 -57 -58z"/>
<path d="M6778 3884 c-49 -48 -58 -62 -58 -93 l0 -36 61 61 c52 52 60 65 57
93 l-3 31 -57 -56z"/>
<path d="M6588 3854 c-45 -45 -58 -65 -58 -89 l0 -30 61 61 c49 50 60 66 57
88 -3 28 -4 27 -60 -30z"/>
<path d="M7527 3825 c-43 -46 -57 -67 -57 -90 0 -30 0 -30 61 31 51 51 60 65
57 90 l-4 29 -57 -60z"/>
<path d="M7338 3803 c-48 -49 -58 -64 -58 -93 l0 -35 61 61 c52 53 60 65 57
93 l-3 32 -57 -58z"/>
<path d="M7148 3763 c-44 -45 -58 -66 -58 -88 0 -30 0 -29 61 31 49 49 60 66
57 88 -3 26 -4 26 -60 -31z"/>
<path d="M6958 3733 c-44 -45 -58 -66 -58 -88 0 -30 0 -29 61 31 49 49 60 66
57 88 -3 26 -4 26 -60 -31z"/>
<path d="M6777 3722 c-47 -48 -57 -64 -57 -92 l0 -34 60 64 c42 46 60 73 60
93 0 15 -1 27 -3 27 -1 0 -28 -26 -60 -58z"/>
<path d="M6588 3703 c-51 -52 -58 -63 -58 -98 l0 -40 61 61 c55 55 60 64 57
98 l-3 37 -57 -58z"/>
<path d="M7528 3672 c-50 -52 -58 -66 -58 -99 l0 -38 61 61 c55 55 60 64 57
98 l-3 38 -57 -60z"/>
<path d="M7338 3633 c-44 -45 -58 -66 -58 -88 0 -30 0 -29 61 31 49 49 60 66
57 88 -3 26 -4 26 -60 -31z"/>
<path d="M7148 3613 c-48 -49 -58 -64 -58 -93 l0 -35 61 61 c52 53 60 65 57
93 l-3 32 -57 -58z"/>
<path d="M6958 3573 c-44 -45 -58 -66 -58 -88 0 -30 0 -29 61 31 49 49 60 66
57 88 -3 26 -4 26 -60 -31z"/>
<path d="M6778 3553 c-44 -45 -58 -66 -58 -88 0 -30 0 -29 61 31 49 49 60 66
57 88 -3 26 -4 26 -60 -31z"/>
<path d="M6588 3533 c-44 -45 -58 -66 -58 -88 0 -30 0 -29 61 31 49 49 60 66
57 88 -3 26 -4 26 -60 -31z"/>
<path d="M7718 3524 c-44 -45 -58 -66 -58 -89 0 -30 0 -30 61 31 50 50 60 66
57 89 -3 28 -3 28 -60 -31z"/>
<path d="M6398 3513 c-51 -52 -58 -63 -58 -98 l0 -40 61 61 c55 55 60 64 57
98 l-3 37 -57 -58z"/>
<path d="M7528 3503 c-48 -49 -58 -64 -58 -93 l0 -35 61 61 c52 53 60 65 57
93 l-3 32 -57 -58z"/>
<path d="M7338 3473 c-48 -49 -58 -64 -58 -93 l0 -35 61 61 c52 53 60 65 57
93 l-3 32 -57 -58z"/>
<path d="M7148 3443 c-44 -45 -58 -66 -58 -88 0 -30 0 -29 61 31 49 49 60 66
57 88 -3 26 -4 26 -60 -31z"/>
<path d="M6958 3419 c-44 -48 -58 -71 -58 -94 l0 -30 61 61 c53 53 60 65 57
93 l-3 33 -57 -63z"/>
<path d="M6778 3393 c-44 -45 -58 -66 -58 -88 0 -30 0 -29 61 31 49 49 60 66
57 88 -3 26 -4 26 -60 -31z"/>
<path d="M7717 3368 c-44 -47 -57 -69 -57 -92 1 -31 1 -31 60 34 42 46 60 73
60 93 0 15 -2 27 -3 27 -2 0 -29 -28 -60 -62z"/>
<path d="M6588 3363 c-44 -45 -58 -66 -58 -88 0 -30 0 -29 61 31 49 49 60 66
57 88 -3 26 -4 26 -60 -31z"/>
<path d="M7528 3335 c-45 -46 -58 -65 -58 -89 l0 -31 61 61 c50 50 60 66 57
89 -3 28 -3 27 -60 -30z"/>
<path d="M7338 3313 c-43 -43 -58 -66 -58 -87 l0 -28 29 25 c59 49 93 95 89
122 -3 25 -5 24 -60 -32z"/>
<path d="M7148 3283 c-48 -49 -58 -64 -58 -93 l0 -35 61 61 c52 53 60 65 57
93 l-3 32 -57 -58z"/>
<path d="M6958 3253 c-47 -48 -58 -65 -58 -92 l0 -33 60 63 c50 51 60 69 58
92 -3 28 -3 28 -60 -30z"/>
<path d="M6778 3235 c-47 -45 -58 -63 -58 -88 l0 -32 61 61 c49 50 60 66 57
88 -3 28 -3 28 -60 -29z"/>
<path d="M6588 3205 c-47 -45 -58 -62 -58 -88 l0 -32 61 61 c49 49 60 66 57
87 -3 27 -4 26 -60 -28z"/>
<path d="M7718 3203 c-48 -49 -58 -64 -58 -93 l0 -35 61 61 c52 53 60 65 57
93 l-3 32 -57 -58z"/>
<path d="M7528 3173 c-44 -45 -58 -66 -58 -88 0 -30 0 -29 61 31 49 49 60 66
57 88 -3 26 -4 26 -60 -31z"/>
<path d="M7338 3145 c-44 -45 -58 -67 -58 -90 0 -30 0 -30 61 31 51 51 60 66
57 90 l-3 29 -57 -60z"/>
<path d="M7147 3122 c-46 -46 -57 -64 -57 -90 l0 -33 60 63 c43 46 60 71 60
91 0 15 -1 27 -3 27 -1 0 -28 -26 -60 -58z"/>
<path d="M6958 3093 c-48 -49 -58 -64 -58 -93 l0 -35 61 61 c52 53 60 65 57
93 l-3 32 -57 -58z"/>
<path d="M6778 3073 c-48 -49 -58 -64 -58 -93 l0 -35 61 61 c52 53 60 65 57
93 l-3 32 -57 -58z"/>
<path d="M6990 2965 l-23 -25 26 0 c22 0 27 5 27 25 0 14 -1 25 -3 25 -2 0
-14 -11 -27 -25z"/>
<path d="M6821 2957 c-9 -11 -10 -17 -2 -17 6 0 11 -10 11 -21 0 -18 2 -20 15
-9 9 7 12 16 7 19 -5 3 -11 15 -13 25 -4 18 -5 18 -18 3z"/>
<path d="M3940 3385 l0 -445 25 0 25 0 0 445 0 445 -25 0 -25 0 0 -445z"/>
<path d="M4130 3310 l0 -370 25 0 25 0 0 370 0 370 -25 0 -25 0 0 -370z"/>
<path d="M1110 3235 l0 -295 25 0 25 0 0 295 0 295 -25 0 -25 0 0 -295z"/>
<path d="M5260 2670 l0 -260 25 0 25 0 0 260 0 260 -25 0 -25 0 0 -260z"/>
<path d="M5450 2545 l0 -385 25 0 25 0 0 385 0 385 -25 0 -25 0 0 -385z"/>
<path d="M8090 1525 l0 -1405 25 0 25 0 0 1405 0 1405 -25 0 -25 0 0 -1405z"/>
<path d="M8280 1575 l0 -1355 25 0 25 0 0 1355 0 1355 -25 0 -25 0 0 -1355z"/>
<path d="M9410 2330 l0 -600 25 0 25 0 0 600 0 600 -25 0 -25 0 0 -600z"/>
<path d="M9600 2530 l0 -400 25 0 25 0 0 400 0 400 -25 0 -25 0 0 -400z"/>
</g>
</svg>
